<svg version="1.1" id="Layer_1" xmlns="http://www.w3.org/2000/svg" xmlns:xlink="http://www.w3.org/1999/xlink" x="0px" y="0px"
	 width="100%" viewBox="0 0 1024 1024" enable-background="new 0 0 1024 1024" xml:space="preserve">
<path fill="#FFFFFF" opacity="0" stroke="none" 
	d="
M466.000000,1025.000000 
	C310.666656,1025.000000 155.833328,1025.000000 1.000000,1025.000000 
	C1.000000,683.666687 1.000000,342.333344 1.000000,1.000000 
	C342.333344,1.000000 683.666687,1.000000 1025.000000,1.000000 
	C1025.000000,342.333344 1025.000000,683.666687 1025.000000,1025.000000 
	C838.833313,1025.000000 652.666687,1025.000000 466.000000,1025.000000 
M712.163696,370.063019 
	C704.751465,370.054657 697.339233,370.046326 689.611694,369.933777 
	C689.611694,369.933777 689.294128,370.031036 688.826843,369.247437 
	C675.016968,369.169678 661.207031,369.081665 647.397095,369.055969 
	C646.901855,369.055054 646.405518,369.669006 645.299316,370.262848 
	C635.050354,377.801819 624.813782,385.357605 614.549072,392.875092 
	C603.940552,400.644409 593.064514,408.072174 582.748901,416.211182 
	C572.607849,424.212402 562.822571,432.697571 553.249756,441.376953 
	C543.152100,450.532288 533.422791,460.099213 523.664001,469.620972 
	C518.020447,475.127472 512.423523,480.711395 507.200439,486.610168 
	C502.795715,491.584717 498.960510,497.063538 494.174408,502.212097 
	C492.171326,504.622742 490.003662,506.924530 488.284760,509.523132 
	C487.872223,510.146820 488.597900,512.186279 489.399597,512.845215 
	C495.702118,518.025146 502.378174,522.767822 508.506958,528.138428 
	C521.824158,539.808167 535.066162,551.577026 547.991394,563.676636 
	C557.757202,572.818604 567.313232,582.233276 576.369263,592.072754 
	C588.281921,605.016113 600.110291,618.098572 611.063660,631.847290 
	C623.903015,647.963440 635.972351,664.710022 647.964783,681.477051 
	C654.489563,690.599670 660.360229,700.211853 666.172424,709.817200 
	C674.605652,723.754150 682.943542,737.758789 690.901428,751.970215 
	C697.890015,764.450684 704.374817,777.216736 710.914551,789.942749 
	C712.628723,793.278442 713.720154,796.934143 715.097595,800.442932 
	C714.668396,800.654541 714.239258,800.866211 713.810059,801.077881 
	C679.349182,754.129150 640.653320,710.892029 598.956604,669.333496 
	C579.639526,651.880310 560.657349,634.036011 540.889587,617.109192 
	C527.353882,605.518738 513.012146,594.803650 498.509918,584.425110 
	C480.974945,571.876160 462.948792,560.007874 445.018005,548.020264 
	C436.141602,542.085938 427.002502,536.544556 418.296539,530.216736 
	C419.956573,526.900269 421.173279,523.250916 423.364166,520.333008 
	C428.805054,513.086853 434.872162,506.312622 440.362152,499.100983 
	C454.732544,480.223999 470.746613,462.848389 487.993011,446.605530 
	C500.852661,434.494141 513.544678,422.156586 527.030579,410.771759 
	C540.612305,399.305908 555.025085,388.816925 569.193359,378.057526 
	C574.308044,374.173492 579.769836,370.746613 585.778259,366.752289 
	C586.212158,366.009918 586.646057,365.267548 587.288025,364.169159 
	C571.160767,364.169159 555.613098,364.169159 539.129028,364.005219 
	C527.754456,364.058136 516.379944,364.111053 504.078796,364.008270 
	C476.040009,364.063507 448.001190,364.118744 419.040039,364.040588 
	C405.693512,364.083099 392.346985,364.125610 378.069000,364.039215 
	C366.506134,364.020691 354.943085,363.966705 343.380646,364.027313 
	C341.890808,364.035126 340.404083,364.636902 338.173004,365.323914 
	C329.581146,365.549194 320.987518,365.723114 312.397919,366.015137 
	C304.801239,366.273346 297.211670,366.761658 289.614044,366.963257 
	C283.606354,367.122711 277.591187,366.985046 271.579468,367.012695 
	C269.262665,367.023376 266.937531,367.019287 264.631317,367.207458 
	C257.940704,367.753387 251.268524,368.635223 244.569016,368.932648 
	C236.891617,369.273468 229.192657,369.128296 220.658768,369.097961 
	C217.226959,369.072388 213.787964,368.898193 210.365417,369.063904 
	C207.076202,369.223206 203.804031,369.734467 200.497696,370.023193 
	C200.497696,370.023193 200.486176,370.095215 199.505951,370.023132 
	C196.655212,370.068878 193.804459,370.114624 190.152725,370.382080 
	C181.416275,370.900513 172.685379,371.556793 163.942245,371.909332 
	C144.635925,372.687775 125.323647,373.319519 106.013344,373.998230 
	C97.824104,374.286072 89.632713,374.514221 81.444122,374.818573 
	C71.544182,375.186523 61.648804,375.729095 51.745987,375.942810 
	C47.834560,376.027252 43.908401,375.429260 39.116390,374.961487 
	C35.630207,375.234619 32.144028,375.507721 28.657846,375.780823 
	C28.588032,376.234344 28.518217,376.687897 28.448402,377.141418 
	C36.638435,383.143433 44.830566,389.142578 53.018028,395.148102 
	C64.963806,403.910309 76.990685,412.565247 88.814384,421.489288 
	C94.737175,425.959595 100.107582,431.164825 106.056061,435.597107 
	C111.963837,439.999084 118.486641,443.577240 124.380913,447.995361 
	C137.417816,457.767365 150.106995,468.003967 163.164185,477.747955 
	C179.267944,489.765442 195.616928,501.453857 211.830719,513.324402 
	C224.063217,522.280090 236.267792,531.274109 248.449844,540.298218 
	C255.457047,545.489014 262.389343,550.780762 269.364960,556.014343 
	C277.764191,562.315979 286.189240,568.583252 294.572876,574.905579 
	C299.687927,578.762878 304.709198,582.745178 309.844727,586.574585 
	C312.565063,588.602966 312.569031,590.866455 311.535522,593.890991 
	C306.200531,609.503601 301.121735,625.203613 295.853180,640.839294 
	C286.366150,668.994080 276.910919,697.160278 267.233063,725.249573 
	C262.777618,738.181152 257.565460,750.853149 253.164490,763.801941 
	C246.815903,782.481079 241.071671,801.365417 234.741577,820.051025 
	C227.650925,840.981689 220.153519,861.774231 212.907974,882.652832 
	C204.570511,906.677856 196.293518,930.723938 188.039001,954.777588 
	C185.960281,960.834961 184.067535,966.956177 181.826950,973.692871 
	C181.391068,974.195557 180.701721,974.638916 180.567642,975.212158 
	C180.192169,976.817688 180.046051,978.476929 179.809448,980.114990 
	C181.367218,979.759583 183.102432,979.725586 184.446548,978.983276 
	C187.428375,977.336609 190.249863,975.387451 193.073730,973.468994 
	C209.505157,962.306152 225.886276,951.069031 242.348282,939.951660 
	C254.488831,931.752686 266.809753,923.819214 278.898712,915.545959 
	C291.542725,906.892761 303.898132,897.816528 316.578766,889.218811 
	C328.291931,881.276978 340.294373,873.763062 352.122314,865.989075 
	C364.374420,857.936462 376.646484,849.910339 388.770203,841.667236 
	C403.042480,831.963257 417.090790,821.929443 431.376556,812.245728 
	C442.026733,805.026306 452.911774,798.154053 463.669830,791.093079 
	C472.340851,785.401978 481.050201,779.764709 489.609100,773.908630 
	C496.935181,768.896118 504.049194,763.574280 511.334625,758.500671 
	C511.927765,758.087524 513.342407,758.199219 513.998779,758.634705 
	C519.415039,762.227966 524.738220,765.961243 530.097168,769.641174 
	C545.907532,780.497803 561.656799,791.445190 577.553589,802.173767 
	C591.029907,811.268799 604.689758,820.091431 618.247620,829.066040 
	C631.409912,837.778931 644.593506,846.461060 657.679138,855.288147 
	C669.655945,863.367371 681.405151,871.787354 693.453674,879.756165 
	C707.148743,888.814026 721.180908,897.363098 734.855469,906.450867 
	C751.922241,917.792847 768.709961,929.554016 785.744629,940.945007 
	C794.389343,946.725647 803.438843,951.901184 812.076538,957.691650 
	C823.167297,965.126587 834.018494,972.918335 845.006836,980.507324 
	C845.820862,981.069519 846.907715,981.236938 847.867676,981.587952 
	C847.805908,980.440308 848.002014,979.204041 847.642639,978.158691 
	C843.839111,967.095459 839.837341,956.099609 836.112244,945.010559 
	C832.750671,935.003296 829.765686,924.869812 826.432861,914.852478 
	C822.060608,901.710999 817.489319,888.635864 813.041992,875.519165 
	C808.292419,861.510864 803.677856,847.456116 798.836792,833.479736 
	C794.360779,820.557617 789.518616,807.761475 785.100220,794.820251 
	C779.906677,779.608643 775.133850,764.253235 769.923767,749.047485 
	C764.770935,734.009033 759.146729,719.131897 754.007874,704.088867 
	C747.486877,684.999878 741.319153,665.790466 734.863892,646.678711 
	C729.084839,629.568787 723.094910,612.530090 717.254700,595.440674 
	C714.974487,588.768250 715.499634,587.612915 721.723877,583.689697 
	C723.930176,582.299072 726.142334,580.890198 728.195007,579.288635 
	C735.034607,573.952209 741.665222,568.338623 748.631348,563.175903 
	C758.833191,555.615112 769.315674,548.434143 779.569336,540.941833 
	C792.472595,531.513489 805.349060,522.044373 818.082153,512.388550 
	C830.190674,503.206421 842.069885,493.722382 854.110840,484.450287 
	C859.005981,480.680756 864.062195,477.120361 869.720337,473.171600 
	C876.419250,468.396912 883.215881,463.752686 889.797241,458.821259 
	C905.080383,447.369751 920.218628,435.725006 935.491943,424.260345 
	C952.337158,411.615784 969.273499,399.092743 986.156311,386.498322 
	C989.897888,383.707153 993.581909,380.838715 997.753479,377.653717 
	C992.920471,377.036072 988.917908,376.524536 984.681152,375.155792 
	C975.152161,375.165985 965.623108,375.176208 955.161011,374.996674 
	C947.744141,375.008514 940.327271,375.020386 932.604065,374.932648 
	C932.604065,374.932648 932.299866,375.038544 931.834839,374.249908 
	C922.591980,374.203979 913.349060,374.158051 903.175415,374.047607 
	C897.886963,374.356842 892.595276,374.969360 887.310730,374.913177 
	C875.766724,374.790497 864.225159,374.364227 852.685730,373.968658 
	C850.759827,373.902649 848.850037,373.366547 846.684753,372.191376 
	C838.169189,372.168640 829.653625,372.145905 820.319519,372.346436 
	C814.181580,372.233887 808.043701,372.121338 801.632812,371.168091 
	C791.776489,371.160126 781.920227,371.152130 771.136169,370.949493 
	C761.077393,370.986755 751.018616,371.023987 740.618042,370.949951 
	C740.618042,370.949951 740.268860,371.035370 739.814575,370.245605 
	C730.912170,370.230072 722.009705,370.214508 712.163696,370.063019 
M613.717224,338.035706 
	C611.331116,331.349030 608.773926,324.717651 606.591003,317.965271 
	C600.079773,297.824554 593.768433,277.619263 587.275879,257.472412 
	C582.606262,242.981934 577.823853,228.527145 572.996887,214.088165 
	C567.278442,196.982361 561.435974,179.918076 555.690674,162.821182 
	C552.523499,153.396133 549.505981,143.920624 546.312378,134.504684 
	C541.951172,121.646301 537.330322,108.874168 533.103027,95.972595 
	C526.812988,76.775681 520.776184,57.495861 514.594177,38.263355 
	C514.384766,37.611946 513.771484,37.090393 512.823547,35.792122 
	C512.182251,38.168438 511.842377,39.709644 511.352264,41.201477 
	C504.956360,60.669495 498.612457,80.155052 492.107330,99.586601 
	C485.199951,120.219643 478.111816,140.792114 471.144958,161.405334 
	C465.018158,179.532959 458.889832,197.660446 452.870178,215.823792 
	C444.754944,240.310333 436.843170,264.864624 428.653900,289.326202 
	C422.642303,307.283112 416.325317,325.137787 409.288361,343.179901 
	C410.706024,343.788269 412.123047,344.926971 413.541473,344.928772 
	C478.955109,345.013092 544.368835,344.998169 609.782532,344.994781 
	C611.414856,344.994690 613.047180,344.994781 615.397949,344.994781 
	C614.844055,342.556488 614.407898,340.636414 613.717224,338.035706 
z"/>
<path fill="#FFFFFF" opacity="1.000000" stroke="none" 
	d="
M599.353455,669.936890 
	C640.653320,710.892029 679.349182,754.129150 713.810059,801.077881 
	C714.239258,800.866211 714.668396,800.654541 715.097595,800.442932 
	C713.720154,796.934143 712.628723,793.278442 710.914551,789.942749 
	C704.374817,777.216736 697.890015,764.450684 690.901428,751.970215 
	C682.943542,737.758789 674.605652,723.754150 666.172424,709.817200 
	C660.360229,700.211853 654.489563,690.599670 647.964783,681.477051 
	C635.972351,664.710022 623.903015,647.963440 611.063660,631.847290 
	C600.110291,618.098572 588.281921,605.016113 576.369263,592.072754 
	C567.313232,582.233276 557.757202,572.818604 547.991394,563.676636 
	C535.066162,551.577026 521.824158,539.808167 508.506958,528.138428 
	C502.378174,522.767822 495.702118,518.025146 489.399597,512.845215 
	C488.597900,512.186279 487.872223,510.146820 488.284760,509.523132 
	C490.003662,506.924530 492.171326,504.622742 494.829529,502.429230 
	C534.921509,493.620453 574.516846,485.431122 614.809937,481.229736 
	C634.654419,479.160553 654.530518,477.329163 674.425415,475.828491 
	C694.163269,474.339630 713.928894,472.874969 733.707336,472.358002 
	C757.168701,471.744812 780.658386,471.969482 804.132751,472.176941 
	C825.772278,472.368164 847.407837,473.017334 869.045105,473.464783 
	C864.062195,477.120361 859.005981,480.680756 854.110840,484.450287 
	C842.069885,493.722382 830.190674,503.206421 818.082153,512.388550 
	C805.349060,522.044373 792.472595,531.513489 779.569336,540.941833 
	C769.315674,548.434143 758.833191,555.615112 748.631348,563.175903 
	C741.665222,568.338623 735.034607,573.952209 728.195007,579.288635 
	C726.142334,580.890198 723.930176,582.299072 721.723877,583.689697 
	C715.499634,587.612915 714.974487,588.768250 717.254700,595.440674 
	C723.094910,612.530090 729.084839,629.568787 734.863892,646.678711 
	C741.319153,665.790466 747.486877,684.999878 754.007874,704.088867 
	C759.146729,719.131897 764.770935,734.009033 769.923767,749.047485 
	C775.133850,764.253235 779.906677,779.608643 785.100220,794.820251 
	C789.518616,807.761475 794.360779,820.557617 798.836792,833.479736 
	C803.677856,847.456116 808.292419,861.510864 813.041992,875.519165 
	C817.489319,888.635864 822.060608,901.710999 826.432861,914.852478 
	C829.765686,924.869812 832.750671,935.003296 836.112244,945.010559 
	C839.837341,956.099609 843.839111,967.095459 847.642639,978.158691 
	C848.002014,979.204041 847.805908,980.440308 847.867676,981.587952 
	C846.907715,981.236938 845.820862,981.069519 845.006836,980.507324 
	C834.018494,972.918335 823.167297,965.126587 812.076538,957.691650 
	C803.438843,951.901184 794.389343,946.725647 785.744629,940.945007 
	C768.709961,929.554016 751.922241,917.792847 734.855469,906.450867 
	C721.180908,897.363098 707.148743,888.814026 693.453674,879.756165 
	C681.405151,871.787354 669.655945,863.367371 657.679138,855.288147 
	C644.593506,846.461060 631.409912,837.778931 618.247620,829.066040 
	C604.689758,820.091431 591.029907,811.268799 577.553589,802.173767 
	C561.656799,791.445190 545.907532,780.497803 530.097168,769.641174 
	C524.738220,765.961243 519.415039,762.227966 513.998779,758.634705 
	C513.342407,758.199219 511.927765,758.087524 511.334625,758.500671 
	C504.049194,763.574280 496.935181,768.896118 489.609100,773.908630 
	C481.050201,779.764709 472.340851,785.401978 463.669830,791.093079 
	C452.911774,798.154053 442.026733,805.026306 431.376556,812.245728 
	C417.090790,821.929443 403.042480,831.963257 388.770203,841.667236 
	C376.646484,849.910339 364.374420,857.936462 352.122314,865.989075 
	C340.294373,873.763062 328.291931,881.276978 316.578766,889.218811 
	C303.898132,897.816528 291.542725,906.892761 278.898712,915.545959 
	C266.809753,923.819214 254.488831,931.752686 242.348282,939.951660 
	C225.886276,951.069031 209.505157,962.306152 193.073730,973.468994 
	C190.249863,975.387451 187.428375,977.336609 184.446548,978.983276 
	C183.102432,979.725586 181.367218,979.759583 179.809433,980.114990 
	C180.046051,978.476929 180.192169,976.817688 180.567642,975.212158 
	C180.701721,974.638916 181.391068,974.195557 182.267426,973.234741 
	C185.642319,968.995056 188.556488,965.197693 191.514572,961.434814 
	C204.563782,944.835815 216.799088,927.503479 230.886322,911.836914 
	C249.660583,890.957825 269.441742,870.925659 289.625397,851.392517 
	C303.826935,837.648865 318.923615,824.705750 334.521240,812.562012 
	C352.469666,798.588013 371.456238,785.952087 389.907959,772.618774 
	C412.210236,756.502991 435.905762,742.668701 460.238068,729.943726 
	C480.729675,719.227234 501.085754,708.057190 522.318054,699.001770 
	C547.540649,688.244568 573.636230,679.534241 599.353455,669.936890 
z"/>
<path fill="#F1F1F1" opacity="1.000000" stroke="none" 
	d="
M599.155029,669.635254 
	C573.636230,679.534241 547.540649,688.244568 522.318054,699.001770 
	C501.085754,708.057190 480.729675,719.227234 460.238068,729.943726 
	C435.905762,742.668701 412.210236,756.502991 389.907959,772.618774 
	C371.456238,785.952087 352.469666,798.588013 334.521240,812.562012 
	C318.923615,824.705750 303.826935,837.648865 289.625397,851.392517 
	C269.441742,870.925659 249.660583,890.957825 230.886322,911.836914 
	C216.799088,927.503479 204.563782,944.835815 191.514572,961.434814 
	C188.556488,965.197693 185.642319,968.995056 182.398621,972.912354 
	C184.067535,966.956177 185.960281,960.834961 188.039001,954.777588 
	C196.293518,930.723938 204.570511,906.677856 212.907974,882.652832 
	C220.153519,861.774231 227.650925,840.981689 234.741577,820.051025 
	C241.071671,801.365417 246.815903,782.481079 253.164490,763.801941 
	C257.565460,750.853149 262.777618,738.181152 267.233063,725.249573 
	C276.910919,697.160278 286.366150,668.994080 295.853180,640.839294 
	C301.121735,625.203613 306.200531,609.503601 311.535522,593.890991 
	C312.569031,590.866455 312.565063,588.602966 309.844727,586.574585 
	C304.709198,582.745178 299.687927,578.762878 294.572876,574.905579 
	C286.189240,568.583252 277.764191,562.315979 269.364960,556.014343 
	C262.389343,550.780762 255.457047,545.489014 248.449844,540.298218 
	C236.267792,531.274109 224.063217,522.280090 211.830719,513.324402 
	C195.616928,501.453857 179.267944,489.765442 163.164185,477.747955 
	C150.106995,468.003967 137.417816,457.767365 124.380913,447.995361 
	C118.486641,443.577240 111.963837,439.999084 106.056061,435.597107 
	C100.107582,431.164825 94.737175,425.959595 88.814384,421.489288 
	C76.990685,412.565247 64.963806,403.910309 53.018028,395.148102 
	C44.830566,389.142578 36.638435,383.143433 28.448402,377.141418 
	C28.518217,376.687897 28.588032,376.234344 28.657846,375.780823 
	C32.144028,375.507721 35.630207,375.234619 39.664082,375.406097 
	C40.570862,376.174072 40.878845,376.674957 41.296425,376.795105 
	C57.261196,381.390350 73.329155,385.651123 89.188927,390.581848 
	C117.001526,399.228699 144.953003,407.542358 172.355042,417.365936 
	C202.588684,428.204681 232.561035,439.902222 262.100372,452.507141 
	C286.403290,462.877625 310.140686,474.662354 333.699036,486.663757 
	C357.418335,498.747223 380.580475,511.921814 404.052582,524.495361 
	C408.538757,526.898560 413.331116,528.730103 417.982239,530.825378 
	C427.002502,536.544556 436.141602,542.085938 445.018005,548.020264 
	C462.948792,560.007874 480.974945,571.876160 498.509918,584.425110 
	C513.012146,594.803650 527.353882,605.518738 540.889587,617.109192 
	C560.657349,634.036011 579.639526,651.880310 599.155029,669.635254 
z"/>
<path fill="#FFFFFF" opacity="1.000000" stroke="none" 
	d="
M418.139404,530.521057 
	C413.331116,528.730103 408.538757,526.898560 404.052582,524.495361 
	C380.580475,511.921814 357.418335,498.747223 333.699036,486.663757 
	C310.140686,474.662354 286.403290,462.877625 262.100372,452.507141 
	C232.561035,439.902222 202.588684,428.204681 172.355042,417.365936 
	C144.953003,407.542358 117.001526,399.228699 89.188927,390.581848 
	C73.329155,385.651123 57.261196,381.390350 41.296425,376.795105 
	C40.878845,376.674957 40.570862,376.174072 40.100365,375.496338 
	C43.908401,375.429260 47.834560,376.027252 51.745987,375.942810 
	C61.648804,375.729095 71.544182,375.186523 81.444122,374.818573 
	C89.632713,374.514221 97.824104,374.286072 106.013344,373.998230 
	C125.323647,373.319519 144.635925,372.687775 163.942245,371.909332 
	C172.685379,371.556793 181.416275,370.900513 190.862976,370.523926 
	C194.544205,370.475586 197.515198,370.285400 200.486176,370.095215 
	C200.486176,370.095215 200.497696,370.023193 201.002594,370.169281 
	C208.172699,369.941681 214.837875,369.567963 221.503067,369.194275 
	C229.192657,369.128296 236.891617,369.273468 244.569016,368.932648 
	C251.268524,368.635223 257.940704,367.753387 264.631317,367.207458 
	C266.937531,367.019287 269.262665,367.023376 271.579468,367.012695 
	C277.591187,366.985046 283.606354,367.122711 289.614044,366.963257 
	C297.211670,366.761658 304.801239,366.273346 312.397919,366.015137 
	C320.987518,365.723114 329.581146,365.549194 339.010590,365.236694 
	C352.878937,365.046204 365.909698,364.942932 379.408264,364.910370 
	C393.227448,364.922485 406.578827,364.863861 420.399872,364.865662 
	C448.931641,364.899261 476.993744,364.872406 505.519470,364.879639 
	C517.342041,364.879456 528.700989,364.845215 540.522522,364.861023 
	C554.114807,364.946259 567.245544,364.911407 580.372864,365.108368 
	C581.949280,365.131989 583.506897,366.412933 585.073181,367.111084 
	C579.769836,370.746613 574.308044,374.173492 569.193359,378.057526 
	C555.025085,388.816925 540.612305,399.305908 527.030579,410.771759 
	C513.544678,422.156586 500.852661,434.494141 487.993011,446.605530 
	C470.746613,462.848389 454.732544,480.223999 440.362152,499.100983 
	C434.872162,506.312622 428.805054,513.086853 423.364166,520.333008 
	C421.173279,523.250916 419.956573,526.900269 418.139404,530.521057 
z"/>
<path fill="#F1F1F1" opacity="1.000000" stroke="none" 
	d="
M869.382690,473.318176 
	C847.407837,473.017334 825.772278,472.368164 804.132751,472.176941 
	C780.658386,471.969482 757.168701,471.744812 733.707336,472.358002 
	C713.928894,472.874969 694.163269,474.339630 674.425415,475.828491 
	C654.530518,477.329163 634.654419,479.160553 614.809937,481.229736 
	C574.516846,485.431122 534.921509,493.620453 495.178955,502.482788 
	C498.960510,497.063538 502.795715,491.584717 507.200439,486.610168 
	C512.423523,480.711395 518.020447,475.127472 523.664001,469.620972 
	C533.422791,460.099213 543.152100,450.532288 553.249756,441.376953 
	C562.822571,432.697571 572.607849,424.212402 582.748901,416.211182 
	C593.064514,408.072174 603.940552,400.644409 614.549072,392.875092 
	C624.813782,385.357605 635.050354,377.801819 646.078125,370.160217 
	C661.002625,370.048737 675.148376,370.039886 689.294128,370.031036 
	C689.294128,370.031036 689.611694,369.933777 690.113892,370.232971 
	C698.127441,370.619751 705.638794,370.707306 713.606079,370.854553 
	C722.797546,370.954620 731.533203,370.994995 740.268860,371.035370 
	C740.268860,371.035370 740.618042,370.949951 741.141052,371.235138 
	C751.809021,371.636749 761.954041,371.753143 772.560486,371.899048 
	C782.649902,371.955322 792.277832,371.982056 801.905762,372.008789 
	C808.043701,372.121338 814.181580,372.233887 821.001221,372.545898 
	C830.099487,372.846100 838.516174,372.946899 846.932800,373.047699 
	C848.850037,373.366547 850.759827,373.902649 852.685730,373.968658 
	C864.225159,374.364227 875.766724,374.790497 887.310730,374.913177 
	C892.595276,374.969360 897.886963,374.356842 903.892090,374.415344 
	C913.839172,374.868256 923.069519,374.953400 932.299866,375.038544 
	C932.299866,375.038544 932.604065,374.932648 933.099304,375.236938 
	C941.111206,375.630646 948.627869,375.720062 956.601440,375.862976 
	C966.344055,375.948669 975.629700,375.980835 984.915344,376.013000 
	C988.917908,376.524536 992.920471,377.036072 997.753479,377.653717 
	C993.581909,380.838715 989.897888,383.707153 986.156311,386.498322 
	C969.273499,399.092743 952.337158,411.615784 935.491943,424.260345 
	C920.218628,435.725006 905.080383,447.369751 889.797241,458.821259 
	C883.215881,463.752686 876.419250,468.396912 869.382690,473.318176 
z"/>
<path fill="#F1F1F1" opacity="1.000000" stroke="none" 
	d="
M410.144409,343.038025 
	C416.325317,325.137787 422.642303,307.283112 428.653900,289.326202 
	C436.843170,264.864624 444.754944,240.310333 452.870178,215.823792 
	C458.889832,197.660446 465.018158,179.532959 471.144958,161.405334 
	C478.111816,140.792114 485.199951,120.219643 492.107330,99.586601 
	C498.612457,80.155052 504.956360,60.669495 511.352264,41.201477 
	C511.842377,39.709644 512.182251,38.168438 512.823547,35.792122 
	C513.771484,37.090393 514.384766,37.611946 514.594177,38.263355 
	C520.776184,57.495861 526.812988,76.775681 533.103027,95.972595 
	C537.330322,108.874168 541.951172,121.646301 546.312378,134.504684 
	C549.505981,143.920624 552.523499,153.396133 555.690674,162.821182 
	C561.435974,179.918076 567.278442,196.982361 572.996887,214.088165 
	C577.823853,228.527145 582.606262,242.981934 587.275879,257.472412 
	C593.768433,277.619263 600.079773,297.824554 606.591003,317.965271 
	C608.773926,324.717651 611.331116,331.349030 613.750122,338.829712 
	C613.783020,341.005768 613.783020,342.387817 613.783020,343.796906 
	C612.580444,343.895294 611.923889,343.996063 611.267273,343.996094 
	C545.630737,343.999115 479.994232,344.000458 414.357758,343.950653 
	C412.953064,343.949585 411.548859,343.355469 410.144409,343.038025 
z"/>
<path fill="#B5BFC5" opacity="1.000000" stroke="none" 
	d="
M409.716370,343.108948 
	C411.548859,343.355469 412.953064,343.949585 414.357758,343.950653 
	C479.994232,344.000458 545.630737,343.999115 611.267273,343.996094 
	C611.923889,343.996063 612.580444,343.895294 613.783020,343.796906 
	C613.783020,342.387817 613.783020,341.005768 613.877380,339.170044 
	C614.407898,340.636414 614.844055,342.556488 615.397949,344.994781 
	C613.047180,344.994781 611.414856,344.994690 609.782532,344.994781 
	C544.368835,344.998169 478.955109,345.013092 413.541473,344.928772 
	C412.123047,344.926971 410.706024,343.788269 409.716370,343.108948 
z"/>
<path fill="#FFFFFF" opacity="1.000000" stroke="none" 
	d="
M505.055878,364.845581 
	C476.993744,364.872406 448.931641,364.899261 420.406555,364.707855 
	C419.943604,364.489594 419.962402,364.173981 419.962402,364.173981 
	C448.001190,364.118744 476.040009,364.063507 504.554138,364.256561 
	C505.029480,364.504852 505.055878,364.845581 505.055878,364.845581 
z"/>
<path fill="#FFFFFF" opacity="1.000000" stroke="none" 
	d="
M585.425720,366.931702 
	C583.506897,366.412933 581.949280,365.131989 580.372864,365.108368 
	C567.245544,364.911407 554.114807,364.946259 540.526611,364.700562 
	C540.068115,364.490082 540.065430,364.169159 540.065430,364.169159 
	C555.613098,364.169159 571.160767,364.169159 587.288025,364.169159 
	C586.646057,365.267548 586.212158,366.009918 585.425720,366.931702 
z"/>
<path fill="#BAC4CA" opacity="1.000000" stroke="none" 
	d="
M689.060486,369.639221 
	C675.148376,370.039886 661.002625,370.048737 646.383301,370.026978 
	C646.405518,369.669006 646.901855,369.055054 647.397095,369.055969 
	C661.207031,369.081665 675.016968,369.169678 689.060486,369.639221 
z"/>
<path fill="#FFFFFF" opacity="1.000000" stroke="none" 
	d="
M419.501221,364.107300 
	C419.962402,364.173981 419.943604,364.489594 419.936920,364.647400 
	C406.578827,364.863861 393.227448,364.922485 379.423157,364.742493 
	C378.970245,364.503876 379.000458,364.168091 379.000458,364.168091 
	C392.346985,364.125610 405.693512,364.083099 419.501221,364.107300 
z"/>
<path fill="#FFFFFF" opacity="1.000000" stroke="none" 
	d="
M378.534729,364.103638 
	C379.000458,364.168091 378.970245,364.503876 378.955353,364.671753 
	C365.909698,364.942932 352.878937,365.046204 339.382050,365.056519 
	C340.404083,364.636902 341.890808,364.035126 343.380646,364.027313 
	C354.943085,363.966705 366.506134,364.020691 378.534729,364.103638 
z"/>
<path fill="#FFFFFF" opacity="1.000000" stroke="none" 
	d="
M539.597229,364.087189 
	C540.065430,364.169159 540.068115,364.490082 540.064087,364.650513 
	C528.700989,364.845215 517.342041,364.879456 505.519470,364.879639 
	C505.055878,364.845581 505.029480,364.504852 505.017426,364.334412 
	C516.379944,364.111053 527.754456,364.058136 539.597229,364.087189 
z"/>
<path fill="#778A9A" opacity="1.000000" stroke="none" 
	d="
M772.098999,371.869568 
	C761.954041,371.753143 751.809021,371.636749 741.311951,371.290771 
	C751.018616,371.023987 761.077393,370.986755 771.596008,371.228790 
	C772.055847,371.508087 772.098999,371.869568 772.098999,371.869568 
z"/>
<path fill="#BFC7CE" opacity="1.000000" stroke="none" 
	d="
M772.560486,371.899078 
	C772.098999,371.869568 772.055847,371.508087 772.059875,371.326111 
	C781.920227,371.152130 791.776489,371.160126 801.769287,371.588440 
	C792.277832,371.982056 782.649902,371.955322 772.560486,371.899078 
z"/>
<path fill="#BFC7CE" opacity="1.000000" stroke="none" 
	d="
M932.067383,374.644226 
	C923.069519,374.953400 913.839172,374.868256 904.357544,374.447632 
	C913.349060,374.158051 922.591980,374.203979 932.067383,374.644226 
z"/>
<path fill="#BFC7CE" opacity="1.000000" stroke="none" 
	d="
M984.798218,375.584412 
	C975.629700,375.980835 966.344055,375.948669 956.600037,375.706299 
	C956.141663,375.496124 956.094116,375.186401 956.094116,375.186401 
	C965.623108,375.176208 975.152161,375.165985 984.798218,375.584412 
z"/>
<path fill="#BAC4CA" opacity="1.000000" stroke="none" 
	d="
M740.041748,370.640503 
	C731.533203,370.994995 722.797546,370.954620 713.609802,370.704559 
	C713.157715,370.494843 713.107300,370.198975 713.107300,370.198975 
	C722.009705,370.214508 730.912170,370.230072 740.041748,370.640503 
z"/>
<path fill="#BFC7CE" opacity="1.000000" stroke="none" 
	d="
M846.808777,372.619537 
	C838.516174,372.946899 830.099487,372.846100 821.410461,372.434265 
	C829.653625,372.145905 838.169189,372.168640 846.808777,372.619537 
z"/>
<path fill="#778A9A" opacity="1.000000" stroke="none" 
	d="
M712.635498,370.130981 
	C713.107300,370.198975 713.157715,370.494843 713.153931,370.644836 
	C705.638794,370.707306 698.127441,370.619751 690.271484,370.285095 
	C697.339233,370.046326 704.751465,370.054657 712.635498,370.130981 
z"/>
<path fill="#778A9A" opacity="1.000000" stroke="none" 
	d="
M955.627563,375.091553 
	C956.094116,375.186401 956.141663,375.496124 956.143066,375.652802 
	C948.627869,375.720062 941.111206,375.630646 933.252441,375.286743 
	C940.327271,375.020386 947.744141,375.008514 955.627563,375.091553 
z"/>
<path fill="#FFFFFF" opacity="1.000000" stroke="none" 
	d="
M221.080917,369.146118 
	C214.837875,369.567963 208.172699,369.941681 201.015945,370.203186 
	C203.804031,369.734467 207.076202,369.223206 210.365417,369.063904 
	C213.787964,368.898193 217.226959,369.072388 221.080917,369.146118 
z"/>
<path fill="#FFFFFF" opacity="1.000000" stroke="none" 
	d="
M199.996063,370.059174 
	C197.515198,370.285400 194.544205,370.475586 191.263474,370.413086 
	C193.804459,370.114624 196.655212,370.068878 199.996063,370.059174 
z"/>
</svg>