<svg xmlns="http://www.w3.org/2000/svg" xmlns:xlink="http://www.w3.org/1999/xlink" width="500" zoomAndPan="magnify" viewBox="0 0 375 374.999991" height="500" preserveAspectRatio="xMidYMid meet" version="1.0"><defs><g/></defs><g fill="#ffffff" fill-opacity="1"><g transform="translate(0.0000045, 159.59999)"><g><path d="M 17.140625 0.71875 C 13.679688 0.71875 10.8125 -0.0351562 8.53125 -1.546875 C 6.25 -3.054688 4.546875 -5.128906 3.421875 -7.765625 C 2.296875 -10.410156 1.734375 -13.414062 1.734375 -16.78125 C 1.734375 -20.132812 2.296875 -23.09375 3.421875 -25.65625 C 4.546875 -28.226562 6.25 -30.242188 8.53125 -31.703125 C 10.8125 -33.171875 13.679688 -33.90625 17.140625 -33.90625 C 22.367188 -33.90625 26.253906 -32.320312 28.796875 -29.15625 C 31.335938 -25.988281 32.609375 -21.863281 32.609375 -16.78125 C 32.609375 -13.414062 32.046875 -10.410156 30.921875 -7.765625 C 29.796875 -5.128906 28.09375 -3.054688 25.8125 -1.546875 C 23.53125 -0.0351562 20.640625 0.71875 17.140625 0.71875 Z M 9.578125 -16.78125 C 9.578125 -15.53125 9.648438 -13.976562 9.796875 -12.125 C 9.941406 -10.28125 10.253906 -8.445312 10.734375 -6.625 C 11.210938 -4.800781 11.96875 -3.273438 13 -2.046875 C 14.03125 -0.828125 15.410156 -0.21875 17.140625 -0.21875 C 18.910156 -0.21875 20.300781 -0.828125 21.3125 -2.046875 C 22.320312 -3.273438 23.078125 -4.800781 23.578125 -6.625 C 24.085938 -8.445312 24.410156 -10.28125 24.546875 -12.125 C 24.691406 -13.976562 24.765625 -15.53125 24.765625 -16.78125 C 24.765625 -18.070312 24.703125 -19.617188 24.578125 -21.421875 C 24.460938 -23.222656 24.148438 -25.007812 23.640625 -26.78125 C 23.140625 -28.5625 22.382812 -30.035156 21.375 -31.203125 C 20.375 -32.378906 18.960938 -32.96875 17.140625 -32.96875 C 15.359375 -32.96875 13.960938 -32.378906 12.953125 -31.203125 C 11.953125 -30.035156 11.210938 -28.5625 10.734375 -26.78125 C 10.253906 -25.007812 9.941406 -23.207031 9.796875 -21.375 C 9.648438 -19.550781 9.578125 -18.019531 9.578125 -16.78125 Z M 9.578125 -16.78125 "/></g></g></g><g fill="#ffffff" fill-opacity="1"><g transform="translate(33.911982, 159.59999)"><g><path d="M 3.890625 -28.375 C 3.890625 -30.863281 2.738281 -32.179688 0.4375 -32.328125 L 0.4375 -33.484375 L 11.296875 -33.484375 L 11.296875 -9.640625 C 11.296875 -7.628906 11.753906 -5.972656 12.671875 -4.671875 C 13.585938 -3.378906 15.148438 -2.734375 17.359375 -2.734375 C 19.273438 -2.734375 20.84375 -3.425781 22.0625 -4.8125 C 23.289062 -6.207031 23.90625 -7.816406 23.90625 -9.640625 L 23.90625 -28.375 C 23.90625 -29.664062 23.648438 -30.632812 23.140625 -31.28125 C 22.640625 -31.925781 21.765625 -32.273438 20.515625 -32.328125 L 20.515625 -33.484375 L 31.3125 -33.484375 L 31.3125 -9.640625 C 31.3125 -8.492188 31.550781 -7.453125 32.03125 -6.515625 C 32.519531 -5.578125 33.4375 -5.0625 34.78125 -4.96875 L 34.78125 -3.59375 L 23.90625 -0.21875 L 23.90625 -5.109375 L 23.046875 -4.03125 C 21.941406 -2.632812 20.546875 -1.613281 18.859375 -0.96875 C 17.179688 -0.320312 15.457031 0 13.6875 0 C 10.5625 0 8.144531 -0.78125 6.4375 -2.34375 C 4.738281 -3.90625 3.890625 -6.289062 3.890625 -9.5 Z M 3.890625 -28.375 "/></g></g></g><g fill="#ffffff" fill-opacity="1"><g transform="translate(68.75996, 159.59999)"><g><path d="M 14.109375 -0.078125 C 10.992188 -0.078125 8.535156 -0.867188 6.734375 -2.453125 C 4.929688 -4.035156 3.644531 -6.109375 2.875 -8.671875 C 2.113281 -11.242188 1.734375 -13.945312 1.734375 -16.78125 C 1.734375 -20.09375 2.210938 -23.039062 3.171875 -25.625 C 4.128906 -28.21875 5.660156 -30.257812 7.765625 -31.75 C 9.878906 -33.238281 12.664062 -33.984375 16.125 -33.984375 C 17.226562 -33.984375 18.367188 -33.882812 19.546875 -33.6875 C 20.722656 -33.5 21.695312 -33.070312 22.46875 -32.40625 L 23.25 -31.6875 L 23.25 -41.546875 C 23.25 -44.035156 22.125 -45.351562 19.875 -45.5 L 19.875 -46.796875 L 30.671875 -50.1875 L 30.671875 -8.921875 C 30.671875 -6.335938 31.820312 -5.019531 34.125 -4.96875 L 34.125 -3.59375 L 23.25 -0.21875 L 23.25 -4.96875 L 22.3125 -3.671875 C 21.40625 -2.421875 20.195312 -1.507812 18.6875 -0.9375 C 17.175781 -0.363281 15.648438 -0.078125 14.109375 -0.078125 Z M 18.21875 -32.765625 C 16.488281 -32.765625 15.054688 -32.113281 13.921875 -30.8125 C 12.796875 -29.519531 11.921875 -27.925781 11.296875 -26.03125 C 10.679688 -24.132812 10.238281 -22.210938 9.96875 -20.265625 C 9.707031 -18.328125 9.578125 -16.707031 9.578125 -15.40625 C 9.578125 -14.351562 9.660156 -13.082031 9.828125 -11.59375 C 9.992188 -10.101562 10.335938 -8.648438 10.859375 -7.234375 C 11.390625 -5.816406 12.144531 -4.628906 13.125 -3.671875 C 14.113281 -2.710938 15.425781 -2.234375 17.0625 -2.234375 C 18.3125 -2.234375 19.425781 -2.601562 20.40625 -3.34375 C 21.394531 -4.09375 22.203125 -4.921875 22.828125 -5.828125 C 22.867188 -5.921875 22.941406 -6.019531 23.046875 -6.125 C 23.085938 -6.21875 23.128906 -6.3125 23.171875 -6.40625 C 23.222656 -6.5 23.25 -6.617188 23.25 -6.765625 L 23.25 -29.234375 C 23.25 -29.515625 23.179688 -29.753906 23.046875 -29.953125 C 22.898438 -29.953125 22.828125 -30.046875 22.828125 -30.234375 C 22.296875 -31.003906 21.632812 -31.617188 20.84375 -32.078125 C 20.050781 -32.535156 19.175781 -32.765625 18.21875 -32.765625 Z M 18.21875 -32.765625 "/></g></g></g><g fill="#ffffff" fill-opacity="1"><g transform="translate(102.95994, 159.59999)"><g><path d="M 17.140625 0.71875 C 13.679688 0.71875 10.8125 -0.0351562 8.53125 -1.546875 C 6.25 -3.054688 4.546875 -5.128906 3.421875 -7.765625 C 2.296875 -10.410156 1.734375 -13.414062 1.734375 -16.78125 C 1.734375 -20.132812 2.296875 -23.09375 3.421875 -25.65625 C 4.546875 -28.226562 6.25 -30.242188 8.53125 -31.703125 C 10.8125 -33.171875 13.679688 -33.90625 17.140625 -33.90625 C 22.367188 -33.90625 26.253906 -32.320312 28.796875 -29.15625 C 31.335938 -25.988281 32.609375 -21.863281 32.609375 -16.78125 C 32.609375 -13.414062 32.046875 -10.410156 30.921875 -7.765625 C 29.796875 -5.128906 28.09375 -3.054688 25.8125 -1.546875 C 23.53125 -0.0351562 20.640625 0.71875 17.140625 0.71875 Z M 9.578125 -16.78125 C 9.578125 -15.53125 9.648438 -13.976562 9.796875 -12.125 C 9.941406 -10.28125 10.253906 -8.445312 10.734375 -6.625 C 11.210938 -4.800781 11.96875 -3.273438 13 -2.046875 C 14.03125 -0.828125 15.410156 -0.21875 17.140625 -0.21875 C 18.910156 -0.21875 20.300781 -0.828125 21.3125 -2.046875 C 22.320312 -3.273438 23.078125 -4.800781 23.578125 -6.625 C 24.085938 -8.445312 24.410156 -10.28125 24.546875 -12.125 C 24.691406 -13.976562 24.765625 -15.53125 24.765625 -16.78125 C 24.765625 -18.070312 24.703125 -19.617188 24.578125 -21.421875 C 24.460938 -23.222656 24.148438 -25.007812 23.640625 -26.78125 C 23.140625 -28.5625 22.382812 -30.035156 21.375 -31.203125 C 20.375 -32.378906 18.960938 -32.96875 17.140625 -32.96875 C 15.359375 -32.96875 13.960938 -32.378906 12.953125 -31.203125 C 11.953125 -30.035156 11.210938 -28.5625 10.734375 -26.78125 C 10.253906 -25.007812 9.941406 -23.207031 9.796875 -21.375 C 9.648438 -19.550781 9.578125 -18.019531 9.578125 -16.78125 Z M 9.578125 -16.78125 "/></g></g></g><g fill="#ffffff" fill-opacity="1"><g transform="translate(136.871918, 159.59999)"><g><path d="M 0.578125 -29.59375 L 11.453125 -33.046875 L 11.453125 -29.953125 L 12.234375 -30.671875 C 13.484375 -31.773438 14.875 -32.585938 16.40625 -33.109375 C 17.945312 -33.640625 19.535156 -33.90625 21.171875 -33.90625 C 23.140625 -33.90625 25.019531 -33.582031 26.8125 -32.9375 C 28.613281 -32.289062 29.945312 -31.054688 30.8125 -29.234375 L 31.171875 -28.515625 L 31.6875 -29.15625 C 32.882812 -30.789062 34.394531 -31.988281 36.21875 -32.75 C 38.039062 -33.519531 39.9375 -33.90625 41.90625 -33.90625 C 45.019531 -33.90625 47.476562 -33.148438 49.28125 -31.640625 C 51.082031 -30.128906 51.984375 -27.742188 51.984375 -24.484375 L 51.984375 -5.109375 C 51.984375 -2.566406 53.132812 -1.269531 55.4375 -1.21875 L 55.4375 0 L 41.1875 0 L 41.1875 -1.21875 C 43.4375 -1.269531 44.5625 -2.566406 44.5625 -5.109375 L 44.5625 -24.34375 C 44.5625 -25.539062 44.359375 -26.738281 43.953125 -27.9375 C 43.546875 -29.132812 42.898438 -30.128906 42.015625 -30.921875 C 41.128906 -31.710938 39.941406 -32.109375 38.453125 -32.109375 C 37.148438 -32.109375 35.992188 -31.710938 34.984375 -30.921875 C 33.984375 -30.128906 33.179688 -29.15625 32.578125 -28 C 31.984375 -26.851562 31.6875 -25.679688 31.6875 -24.484375 L 31.6875 -5.109375 C 31.6875 -2.566406 32.835938 -1.269531 35.140625 -1.21875 L 35.140625 0 L 20.875 0 L 20.875 -1.21875 C 22.125 -1.269531 23 -1.609375 23.5 -2.234375 C 24.007812 -2.859375 24.265625 -3.816406 24.265625 -5.109375 L 24.265625 -24.34375 C 24.265625 -26.445312 23.832031 -28.265625 22.96875 -29.796875 C 22.101562 -31.335938 20.421875 -32.109375 17.921875 -32.109375 C 16.578125 -32.109375 15.410156 -31.695312 14.421875 -30.875 C 13.441406 -30.0625 12.703125 -29.054688 12.203125 -27.859375 C 11.703125 -26.660156 11.453125 -25.488281 11.453125 -24.34375 L 11.453125 -5.109375 C 11.453125 -2.566406 12.578125 -1.269531 14.828125 -1.21875 L 14.828125 0 L 0.578125 0 L 0.578125 -1.21875 C 2.878906 -1.269531 4.03125 -2.566406 4.03125 -5.109375 L 4.03125 -24.34375 C 4.03125 -26.832031 2.878906 -28.148438 0.578125 -28.296875 Z M 0.578125 -29.59375 "/></g></g></g><g fill="#ffffff" fill-opacity="1"><g transform="translate(192.815888, 159.59999)"><g><path d="M 3.3125 -36.640625 L 2.015625 -37.515625 L 6.1875 -48.671875 L 13.3125 -48.671875 Z M 3.3125 -36.640625 "/></g></g></g><g fill="#ffffff" fill-opacity="1"><g transform="translate(205.415878, 159.59999)"><g><path d="M 1.515625 -3.59375 C 1.460938 -3.695312 1.425781 -3.769531 1.40625 -3.8125 C 1.382812 -3.863281 1.347656 -3.910156 1.296875 -3.953125 L 2.375 -10.796875 L 3.09375 -10.796875 C 3.1875 -9.503906 3.601562 -8.234375 4.34375 -6.984375 C 5.09375 -5.734375 6.039062 -4.613281 7.1875 -3.625 C 8.34375 -2.644531 9.582031 -1.851562 10.90625 -1.25 C 12.226562 -0.65625 13.488281 -0.359375 14.6875 -0.359375 C 15.457031 -0.359375 16.296875 -0.5 17.203125 -0.78125 C 18.117188 -1.070312 18.910156 -1.550781 19.578125 -2.21875 C 20.253906 -2.894531 20.59375 -3.765625 20.59375 -4.828125 C 20.59375 -5.929688 20.253906 -6.890625 19.578125 -7.703125 C 18.910156 -8.515625 18.097656 -9.242188 17.140625 -9.890625 C 16.179688 -10.546875 15.269531 -11.113281 14.40625 -11.59375 C 13.875 -11.925781 13.316406 -12.25 12.734375 -12.5625 C 12.160156 -12.875 11.585938 -13.195312 11.015625 -13.53125 C 9.484375 -14.445312 8.019531 -15.40625 6.625 -16.40625 C 5.226562 -17.414062 4.097656 -18.582031 3.234375 -19.90625 C 2.367188 -21.226562 1.9375 -22.753906 1.9375 -24.484375 C 1.9375 -26.785156 2.546875 -28.617188 3.765625 -29.984375 C 4.992188 -31.359375 6.582031 -32.351562 8.53125 -32.96875 C 10.476562 -33.59375 12.484375 -33.90625 14.546875 -33.90625 C 16.460938 -33.90625 18.332031 -33.582031 20.15625 -32.9375 C 21.976562 -32.289062 23.5625 -31.296875 24.90625 -29.953125 C 24.90625 -29.953125 25.0625 -29.78125 25.375 -29.4375 C 25.6875 -29.101562 25.867188 -28.890625 25.921875 -28.796875 L 25.921875 -23.46875 L 24.90625 -23.46875 C 24.332031 -24.769531 23.492188 -26.148438 22.390625 -27.609375 C 21.285156 -29.078125 20 -30.3125 18.53125 -31.3125 C 17.070312 -32.320312 15.550781 -32.828125 13.96875 -32.828125 C 12.625 -32.828125 11.492188 -32.40625 10.578125 -31.5625 C 9.671875 -30.726562 9.21875 -29.613281 9.21875 -28.21875 C 9.21875 -26.351562 9.851562 -24.796875 11.125 -23.546875 C 12.394531 -22.296875 13.75 -21.238281 15.1875 -20.375 C 15.71875 -20.039062 16.269531 -19.726562 16.84375 -19.4375 C 17.425781 -19.15625 18.003906 -18.84375 18.578125 -18.5 C 20.109375 -17.6875 21.546875 -16.820312 22.890625 -15.90625 C 24.234375 -15 25.3125 -13.96875 26.125 -12.8125 C 26.945312 -11.664062 27.359375 -10.273438 27.359375 -8.640625 C 27.359375 -7.296875 26.972656 -6 26.203125 -4.75 C 25.003906 -2.6875 23.253906 -1.257812 20.953125 -0.46875 C 18.648438 0.320312 16.320312 0.71875 13.96875 0.71875 C 11.757812 0.71875 9.523438 0.394531 7.265625 -0.25 C 5.015625 -0.894531 3.097656 -2.007812 1.515625 -3.59375 Z M 1.515625 -3.59375 "/></g></g></g><g fill="#ffffff" fill-opacity="1"><g transform="translate(0.0000045, 216.599986)"><g><path d="M -0.859375 -32.328125 L -0.859375 -33.484375 L 13.609375 -33.484375 L 13.609375 -32.328125 C 13.128906 -32.234375 12.707031 -32.015625 12.34375 -31.671875 C 11.988281 -31.335938 11.8125 -30.835938 11.8125 -30.171875 C 11.8125 -29.785156 11.867188 -29.421875 11.984375 -29.078125 C 12.109375 -28.742188 12.242188 -28.4375 12.390625 -28.15625 L 22.03125 -8.359375 L 27.796875 -21.234375 L 24.484375 -28.078125 C 24.003906 -29.035156 23.367188 -29.945312 22.578125 -30.8125 C 21.785156 -31.675781 20.765625 -32.179688 19.515625 -32.328125 L 19.515625 -33.484375 L 33.984375 -33.484375 L 33.984375 -32.328125 C 33.503906 -32.234375 33.082031 -32.015625 32.71875 -31.671875 C 32.363281 -31.335938 32.1875 -30.835938 32.1875 -30.171875 C 32.1875 -29.785156 32.242188 -29.421875 32.359375 -29.078125 C 32.484375 -28.742188 32.617188 -28.4375 32.765625 -28.15625 L 42.265625 -8.5625 L 48.890625 -26.203125 C 48.984375 -26.546875 49.078125 -26.882812 49.171875 -27.21875 C 49.265625 -27.550781 49.3125 -27.910156 49.3125 -28.296875 C 49.3125 -29.398438 49 -30.238281 48.375 -30.8125 C 47.757812 -31.394531 47.019531 -31.789062 46.15625 -32 C 45.289062 -32.21875 44.472656 -32.328125 43.703125 -32.328125 L 43.703125 -33.484375 L 56.453125 -33.484375 L 56.453125 -32.25 C 55.585938 -32.15625 54.769531 -31.769531 54 -31.09375 C 53.226562 -30.425781 52.566406 -29.671875 52.015625 -28.828125 C 51.460938 -27.992188 51.046875 -27.238281 50.765625 -26.5625 L 40.109375 -0.71875 L 40.109375 -0.796875 L 39.671875 0 L 38.234375 0 L 28.375 -20.09375 L 19.296875 0 L 17.859375 0 L 4.109375 -28.078125 C 3.628906 -29.035156 2.992188 -29.945312 2.203125 -30.8125 C 1.410156 -31.675781 0.390625 -32.179688 -0.859375 -32.328125 Z M -0.859375 -32.328125 "/></g></g></g><g fill="#ffffff" fill-opacity="1"><g transform="translate(55.36797, 216.599986)"><g><path d="M 17.140625 0.71875 C 13.679688 0.71875 10.8125 -0.0351562 8.53125 -1.546875 C 6.25 -3.054688 4.546875 -5.128906 3.421875 -7.765625 C 2.296875 -10.410156 1.734375 -13.414062 1.734375 -16.78125 C 1.734375 -20.132812 2.296875 -23.09375 3.421875 -25.65625 C 4.546875 -28.226562 6.25 -30.242188 8.53125 -31.703125 C 10.8125 -33.171875 13.679688 -33.90625 17.140625 -33.90625 C 22.367188 -33.90625 26.253906 -32.320312 28.796875 -29.15625 C 31.335938 -25.988281 32.609375 -21.863281 32.609375 -16.78125 C 32.609375 -13.414062 32.046875 -10.410156 30.921875 -7.765625 C 29.796875 -5.128906 28.09375 -3.054688 25.8125 -1.546875 C 23.53125 -0.0351562 20.640625 0.71875 17.140625 0.71875 Z M 9.578125 -16.78125 C 9.578125 -15.53125 9.648438 -13.976562 9.796875 -12.125 C 9.941406 -10.28125 10.253906 -8.445312 10.734375 -6.625 C 11.210938 -4.800781 11.96875 -3.273438 13 -2.046875 C 14.03125 -0.828125 15.410156 -0.21875 17.140625 -0.21875 C 18.910156 -0.21875 20.300781 -0.828125 21.3125 -2.046875 C 22.320312 -3.273438 23.078125 -4.800781 23.578125 -6.625 C 24.085938 -8.445312 24.410156 -10.28125 24.546875 -12.125 C 24.691406 -13.976562 24.765625 -15.53125 24.765625 -16.78125 C 24.765625 -18.070312 24.703125 -19.617188 24.578125 -21.421875 C 24.460938 -23.222656 24.148438 -25.007812 23.640625 -26.78125 C 23.140625 -28.5625 22.382812 -30.035156 21.375 -31.203125 C 20.375 -32.378906 18.960938 -32.96875 17.140625 -32.96875 C 15.359375 -32.96875 13.960938 -32.378906 12.953125 -31.203125 C 11.953125 -30.035156 11.210938 -28.5625 10.734375 -26.78125 C 10.253906 -25.007812 9.941406 -23.207031 9.796875 -21.375 C 9.648438 -19.550781 9.578125 -18.019531 9.578125 -16.78125 Z M 9.578125 -16.78125 "/></g></g></g><g fill="#ffffff" fill-opacity="1"><g transform="translate(89.279948, 216.599986)"><g><path d="M 0.859375 -29.59375 L 11.734375 -33.046875 L 11.734375 -27.9375 L 12.671875 -29.515625 C 13.585938 -31.003906 14.800781 -32.117188 16.3125 -32.859375 C 17.820312 -33.609375 19.460938 -33.984375 21.234375 -33.984375 C 22.628906 -33.984375 23.960938 -33.726562 25.234375 -33.21875 C 26.503906 -32.71875 27.5 -31.84375 28.21875 -30.59375 C 28.457031 -30.21875 28.648438 -29.8125 28.796875 -29.375 C 28.941406 -28.945312 29.015625 -28.515625 29.015625 -28.078125 C 29.015625 -27.117188 28.640625 -26.347656 27.890625 -25.765625 C 27.148438 -25.191406 26.300781 -24.90625 25.34375 -24.90625 C 24.8125 -24.90625 24.363281 -24.976562 24 -25.125 C 23.644531 -25.269531 23.347656 -25.4375 23.109375 -25.625 C 22.828125 -25.863281 22.5625 -26.128906 22.3125 -26.421875 C 22.21875 -26.566406 22.097656 -26.722656 21.953125 -26.890625 C 21.816406 -27.054688 21.695312 -27.210938 21.59375 -27.359375 C 21.113281 -28.035156 20.550781 -28.679688 19.90625 -29.296875 C 19.257812 -29.921875 18.265625 -30.234375 16.921875 -30.234375 C 15.285156 -30.234375 14.007812 -29.617188 13.09375 -28.390625 C 12.1875 -27.171875 11.734375 -25.820312 11.734375 -24.34375 L 11.734375 -5.109375 C 11.734375 -2.566406 12.863281 -1.269531 15.125 -1.21875 L 15.125 0 L 0.859375 0 L 0.859375 -1.21875 C 3.160156 -1.269531 4.3125 -2.566406 4.3125 -5.109375 L 4.3125 -24.34375 C 4.3125 -26.832031 3.160156 -28.148438 0.859375 -28.296875 Z M 0.859375 -29.59375 "/></g></g></g><g fill="#ffffff" fill-opacity="1"><g transform="translate(118.439938, 216.599986)"><g><path d="M 0.5 -46.796875 L 11.375 -50.1875 L 11.375 -18.796875 L 13.109375 -18.796875 L 20.15625 -24.84375 C 20.539062 -25.175781 21.007812 -25.617188 21.5625 -26.171875 C 22.113281 -26.722656 22.601562 -27.332031 23.03125 -28 C 23.46875 -28.675781 23.6875 -29.328125 23.6875 -29.953125 C 23.6875 -30.617188 23.492188 -31.117188 23.109375 -31.453125 C 22.722656 -31.796875 22.316406 -32.039062 21.890625 -32.1875 L 21.890625 -33.484375 L 33.484375 -33.484375 L 33.484375 -32.25 C 32.421875 -32.15625 31.226562 -31.695312 29.90625 -30.875 C 28.59375 -30.0625 27.3125 -29.15625 26.0625 -28.15625 C 24.625 -27.09375 23.269531 -26 22 -24.875 C 20.726562 -23.75 19.707031 -22.875 18.9375 -22.25 L 18.578125 -21.890625 L 30.75 -4.828125 C 31.414062 -3.910156 32.144531 -3.101562 32.9375 -2.40625 C 33.726562 -1.71875 34.722656 -1.320312 35.921875 -1.21875 L 35.921875 0 L 20.15625 0 L 20.15625 -1.21875 C 20.59375 -1.21875 20.976562 -1.316406 21.3125 -1.515625 C 21.601562 -1.660156 21.867188 -1.863281 22.109375 -2.125 C 22.347656 -2.382812 22.46875 -2.734375 22.46875 -3.171875 C 22.46875 -3.410156 22.414062 -3.632812 22.3125 -3.84375 C 22.21875 -4.0625 22.125 -4.269531 22.03125 -4.46875 C 21.9375 -4.65625 21.828125 -4.820312 21.703125 -4.96875 C 21.585938 -5.113281 21.484375 -5.28125 21.390625 -5.46875 L 12.59375 -17.640625 L 11.375 -17.640625 L 11.375 -5.109375 C 11.375 -2.566406 12.503906 -1.269531 14.765625 -1.21875 L 14.765625 0 L 0.5 0 L 0.5 -1.21875 C 2.800781 -1.269531 3.953125 -2.566406 3.953125 -5.109375 L 3.953125 -41.546875 C 3.953125 -44.035156 2.800781 -45.351562 0.5 -45.5 Z M 0.5 -46.796875 "/></g></g></g><g fill="#ffffff" fill-opacity="1"><g transform="translate(154.223917, 216.599986)"><g><path d="M 1.515625 -3.59375 C 1.460938 -3.695312 1.425781 -3.769531 1.40625 -3.8125 C 1.382812 -3.863281 1.347656 -3.910156 1.296875 -3.953125 L 2.375 -10.796875 L 3.09375 -10.796875 C 3.1875 -9.503906 3.601562 -8.234375 4.34375 -6.984375 C 5.09375 -5.734375 6.039062 -4.613281 7.1875 -3.625 C 8.34375 -2.644531 9.582031 -1.851562 10.90625 -1.25 C 12.226562 -0.65625 13.488281 -0.359375 14.6875 -0.359375 C 15.457031 -0.359375 16.296875 -0.5 17.203125 -0.78125 C 18.117188 -1.070312 18.910156 -1.550781 19.578125 -2.21875 C 20.253906 -2.894531 20.59375 -3.765625 20.59375 -4.828125 C 20.59375 -5.929688 20.253906 -6.890625 19.578125 -7.703125 C 18.910156 -8.515625 18.097656 -9.242188 17.140625 -9.890625 C 16.179688 -10.546875 15.269531 -11.113281 14.40625 -11.59375 C 13.875 -11.925781 13.316406 -12.25 12.734375 -12.5625 C 12.160156 -12.875 11.585938 -13.195312 11.015625 -13.53125 C 9.484375 -14.445312 8.019531 -15.40625 6.625 -16.40625 C 5.226562 -17.414062 4.097656 -18.582031 3.234375 -19.90625 C 2.367188 -21.226562 1.9375 -22.753906 1.9375 -24.484375 C 1.9375 -26.785156 2.546875 -28.617188 3.765625 -29.984375 C 4.992188 -31.359375 6.582031 -32.351562 8.53125 -32.96875 C 10.476562 -33.59375 12.484375 -33.90625 14.546875 -33.90625 C 16.460938 -33.90625 18.332031 -33.582031 20.15625 -32.9375 C 21.976562 -32.289062 23.5625 -31.296875 24.90625 -29.953125 C 24.90625 -29.953125 25.0625 -29.78125 25.375 -29.4375 C 25.6875 -29.101562 25.867188 -28.890625 25.921875 -28.796875 L 25.921875 -23.46875 L 24.90625 -23.46875 C 24.332031 -24.769531 23.492188 -26.148438 22.390625 -27.609375 C 21.285156 -29.078125 20 -30.3125 18.53125 -31.3125 C 17.070312 -32.320312 15.550781 -32.828125 13.96875 -32.828125 C 12.625 -32.828125 11.492188 -32.40625 10.578125 -31.5625 C 9.671875 -30.726562 9.21875 -29.613281 9.21875 -28.21875 C 9.21875 -26.351562 9.851562 -24.796875 11.125 -23.546875 C 12.394531 -22.296875 13.75 -21.238281 15.1875 -20.375 C 15.71875 -20.039062 16.269531 -19.726562 16.84375 -19.4375 C 17.425781 -19.15625 18.003906 -18.84375 18.578125 -18.5 C 20.109375 -17.6875 21.546875 -16.820312 22.890625 -15.90625 C 24.234375 -15 25.3125 -13.96875 26.125 -12.8125 C 26.945312 -11.664062 27.359375 -10.273438 27.359375 -8.640625 C 27.359375 -7.296875 26.972656 -6 26.203125 -4.75 C 25.003906 -2.6875 23.253906 -1.257812 20.953125 -0.46875 C 18.648438 0.320312 16.320312 0.71875 13.96875 0.71875 C 11.757812 0.71875 9.523438 0.394531 7.265625 -0.25 C 5.015625 -0.894531 3.097656 -2.007812 1.515625 -3.59375 Z M 1.515625 -3.59375 "/></g></g></g><g fill="#ffffff" fill-opacity="1"><g transform="translate(182.303906, 216.599986)"><g><path d="M 0.359375 -46.796875 L 11.234375 -50.1875 L 11.234375 -29.65625 L 12.09375 -30.453125 C 13.289062 -31.648438 14.679688 -32.523438 16.265625 -33.078125 C 17.847656 -33.628906 19.457031 -33.90625 21.09375 -33.90625 C 24.257812 -33.90625 26.921875 -33.1875 29.078125 -31.75 C 31.242188 -30.3125 32.328125 -27.890625 32.328125 -24.484375 L 32.328125 -5.109375 C 32.328125 -2.566406 33.457031 -1.269531 35.71875 -1.21875 L 35.71875 0 L 21.453125 0 L 21.453125 -1.21875 C 23.753906 -1.269531 24.90625 -2.566406 24.90625 -5.109375 L 24.90625 -24.484375 C 24.90625 -26.691406 24.398438 -28.535156 23.390625 -30.015625 C 22.390625 -31.503906 20.640625 -32.25 18.140625 -32.25 C 16.753906 -32.25 15.53125 -31.863281 14.46875 -31.09375 C 13.414062 -30.332031 12.613281 -29.363281 12.0625 -28.1875 C 11.507812 -27.007812 11.234375 -25.773438 11.234375 -24.484375 L 11.234375 -5.109375 C 11.234375 -2.566406 12.359375 -1.269531 14.609375 -1.21875 L 14.609375 0 L 0.359375 0 L 0.359375 -1.21875 C 2.660156 -1.269531 3.8125 -2.566406 3.8125 -5.109375 L 3.8125 -41.546875 C 3.8125 -44.035156 2.660156 -45.351562 0.359375 -45.5 Z M 0.359375 -46.796875 "/></g></g></g><g fill="#ffffff" fill-opacity="1"><g transform="translate(217.871877, 216.599986)"><g><path d="M 17.140625 0.71875 C 13.679688 0.71875 10.8125 -0.0351562 8.53125 -1.546875 C 6.25 -3.054688 4.546875 -5.128906 3.421875 -7.765625 C 2.296875 -10.410156 1.734375 -13.414062 1.734375 -16.78125 C 1.734375 -20.132812 2.296875 -23.09375 3.421875 -25.65625 C 4.546875 -28.226562 6.25 -30.242188 8.53125 -31.703125 C 10.8125 -33.171875 13.679688 -33.90625 17.140625 -33.90625 C 22.367188 -33.90625 26.253906 -32.320312 28.796875 -29.15625 C 31.335938 -25.988281 32.609375 -21.863281 32.609375 -16.78125 C 32.609375 -13.414062 32.046875 -10.410156 30.921875 -7.765625 C 29.796875 -5.128906 28.09375 -3.054688 25.8125 -1.546875 C 23.53125 -0.0351562 20.640625 0.71875 17.140625 0.71875 Z M 9.578125 -16.78125 C 9.578125 -15.53125 9.648438 -13.976562 9.796875 -12.125 C 9.941406 -10.28125 10.253906 -8.445312 10.734375 -6.625 C 11.210938 -4.800781 11.96875 -3.273438 13 -2.046875 C 14.03125 -0.828125 15.410156 -0.21875 17.140625 -0.21875 C 18.910156 -0.21875 20.300781 -0.828125 21.3125 -2.046875 C 22.320312 -3.273438 23.078125 -4.800781 23.578125 -6.625 C 24.085938 -8.445312 24.410156 -10.28125 24.546875 -12.125 C 24.691406 -13.976562 24.765625 -15.53125 24.765625 -16.78125 C 24.765625 -18.070312 24.703125 -19.617188 24.578125 -21.421875 C 24.460938 -23.222656 24.148438 -25.007812 23.640625 -26.78125 C 23.140625 -28.5625 22.382812 -30.035156 21.375 -31.203125 C 20.375 -32.378906 18.960938 -32.96875 17.140625 -32.96875 C 15.359375 -32.96875 13.960938 -32.378906 12.953125 -31.203125 C 11.953125 -30.035156 11.210938 -28.5625 10.734375 -26.78125 C 10.253906 -25.007812 9.941406 -23.207031 9.796875 -21.375 C 9.648438 -19.550781 9.578125 -18.019531 9.578125 -16.78125 Z M 9.578125 -16.78125 "/></g></g></g><g fill="#ffffff" fill-opacity="1"><g transform="translate(251.783854, 216.599986)"><g><path d="M 0.5 -30.3125 L 11.375 -33.765625 L 11.375 -28.15625 L 12.3125 -29.8125 C 13.125 -31.25 14.332031 -32.289062 15.9375 -32.9375 C 17.550781 -33.582031 19.175781 -33.90625 20.8125 -33.90625 C 23.976562 -33.90625 26.457031 -33.113281 28.25 -31.53125 C 30.050781 -29.945312 31.335938 -27.894531 32.109375 -25.375 C 32.878906 -22.851562 33.265625 -20.15625 33.265625 -17.28125 C 33.265625 -14.019531 32.785156 -11.078125 31.828125 -8.453125 C 30.867188 -5.835938 29.34375 -3.773438 27.25 -2.265625 C 25.164062 -0.753906 22.367188 0 18.859375 0 C 17.710938 0 16.515625 -0.117188 15.265625 -0.359375 C 14.015625 -0.597656 13.003906 -1.101562 12.234375 -1.875 L 11.375 -2.8125 L 11.375 11.296875 C 11.375 13.890625 12.503906 15.210938 14.765625 15.265625 L 14.765625 16.484375 L 0.5 16.484375 L 0.5 15.265625 C 2.800781 15.210938 3.953125 13.890625 3.953125 11.296875 L 3.953125 -25.0625 C 3.953125 -27.550781 2.800781 -28.867188 0.5 -29.015625 Z M 11.375 -26.5 L 11.375 -5.6875 C 11.375 -5.445312 11.421875 -5.234375 11.515625 -5.046875 C 11.609375 -4.847656 11.65625 -4.726562 11.65625 -4.6875 C 12.144531 -3.71875 12.832031 -2.894531 13.71875 -2.21875 C 14.601562 -1.550781 15.597656 -1.21875 16.703125 -1.21875 C 18.429688 -1.21875 19.867188 -1.863281 21.015625 -3.15625 C 22.171875 -4.457031 23.0625 -6.054688 23.6875 -7.953125 C 24.3125 -9.847656 24.753906 -11.765625 25.015625 -13.703125 C 25.285156 -15.648438 25.421875 -17.273438 25.421875 -18.578125 C 25.421875 -19.679688 25.332031 -20.976562 25.15625 -22.46875 C 24.988281 -23.957031 24.640625 -25.40625 24.109375 -26.8125 C 23.585938 -28.226562 22.832031 -29.414062 21.84375 -30.375 C 20.863281 -31.34375 19.554688 -31.828125 17.921875 -31.828125 C 16.679688 -31.828125 15.566406 -31.453125 14.578125 -30.703125 C 13.597656 -29.960938 12.796875 -29.113281 12.171875 -28.15625 C 12.171875 -28.15625 12.117188 -28.082031 12.015625 -27.9375 C 11.921875 -27.789062 11.828125 -27.644531 11.734375 -27.5 C 11.679688 -27.351562 11.609375 -27.1875 11.515625 -27 C 11.472656 -26.945312 11.453125 -26.910156 11.453125 -26.890625 C 11.453125 -26.867188 11.453125 -26.859375 11.453125 -26.859375 C 11.398438 -26.765625 11.375 -26.644531 11.375 -26.5 Z M 11.375 -26.5 "/></g></g></g></svg>