<svg xmlns="http://www.w3.org/2000/svg" xmlns:xlink="http://www.w3.org/1999/xlink" width="500" zoomAndPan="magnify" viewBox="0 0 375 374.999991" height="500" preserveAspectRatio="xMidYMid meet" version="1.0"><defs><g/></defs><g fill="#ffffff" fill-opacity="1"><g transform="translate(38.319985, 160.301241)"><g><path d="M 20.53125 -12.140625 L 20.53125 -17.375 C 20.53125 -21.363281 20.3125 -24.269531 19.875 -26.09375 C 19.445312 -27.925781 18.453125 -28.84375 16.890625 -28.84375 C 15.984375 -28.84375 15.253906 -28.585938 14.703125 -28.078125 C 14.148438 -27.566406 13.75 -26.710938 13.5 -25.515625 C 13.125 -23.671875 12.9375 -20.859375 12.9375 -17.078125 L 12.9375 -12.265625 C 12.9375 -7.785156 13.070312 -5.09375 13.34375 -4.1875 C 13.613281 -3.28125 13.890625 -2.539062 14.171875 -1.96875 C 14.628906 -0.988281 15.515625 -0.5 16.828125 -0.5 C 18.429688 -0.5 19.476562 -1.421875 19.96875 -3.265625 C 20.34375 -4.578125 20.53125 -7.535156 20.53125 -12.140625 Z M 16.703125 0.609375 C 11.566406 0.609375 7.679688 -0.703125 5.046875 -3.328125 C 2.421875 -5.960938 1.109375 -9.734375 1.109375 -14.640625 C 1.109375 -19.546875 2.515625 -23.320312 5.328125 -25.96875 C 8.140625 -28.625 12.09375 -29.953125 17.1875 -29.953125 C 22.289062 -29.953125 26.09375 -28.726562 28.59375 -26.28125 C 31.101562 -23.84375 32.359375 -20.117188 32.359375 -15.109375 C 32.359375 -4.628906 27.140625 0.609375 16.703125 0.609375 Z M 16.703125 0.609375 "/></g></g></g><g fill="#ffffff" fill-opacity="1"><g transform="translate(71.790804, 160.301241)"><g><path d="M 36.671875 0 L 22.625 0 L 21.9375 -4.5 C 21.28125 -2.851562 20.304688 -1.585938 19.015625 -0.703125 C 17.722656 0.171875 15.800781 0.609375 13.25 0.609375 C 6.882812 0.609375 3.703125 -2.816406 3.703125 -9.671875 L 3.703125 -28.234375 L 0.25 -28.234375 L 0.25 -29.34375 L 15.15625 -29.34375 L 15.15625 -8.203125 C 15.15625 -5.734375 15.332031 -4.109375 15.6875 -3.328125 C 16.039062 -2.546875 16.738281 -2.15625 17.78125 -2.15625 C 18.832031 -2.15625 19.769531 -2.789062 20.59375 -4.0625 C 21.414062 -5.34375 21.828125 -7.113281 21.828125 -9.375 L 21.828125 -28.234375 L 18.984375 -28.234375 L 18.984375 -29.34375 L 33.28125 -29.34375 L 33.28125 -1.109375 L 36.671875 -1.109375 Z M 36.671875 0 "/></g></g></g><g fill="#ffffff" fill-opacity="1"><g transform="translate(109.083343, 160.301241)"><g><path d="M 13.125 -12.765625 C 13.125 -8.441406 13.347656 -5.570312 13.796875 -4.15625 C 14.253906 -2.738281 15.085938 -2.03125 16.296875 -2.03125 C 17.515625 -2.03125 18.5625 -2.5625 19.4375 -3.625 C 20.320312 -4.695312 20.765625 -6.285156 20.765625 -8.390625 L 20.765625 -21.828125 C 20.765625 -23.585938 20.414062 -25.082031 19.71875 -26.3125 C 19.019531 -27.550781 17.992188 -28.171875 16.640625 -28.171875 C 15.285156 -28.171875 14.359375 -27.265625 13.859375 -25.453125 C 13.367188 -23.648438 13.125 -20.488281 13.125 -15.96875 Z M 21.578125 0 L 20.890625 -4.3125 C 19.492188 -1.03125 16.660156 0.609375 12.390625 0.609375 C 8.859375 0.609375 6.113281 -0.660156 4.15625 -3.203125 C 2.207031 -5.753906 1.234375 -9.554688 1.234375 -14.609375 C 1.234375 -24.835938 5.300781 -29.953125 13.4375 -29.953125 C 17.050781 -29.953125 19.4375 -28.945312 20.59375 -26.9375 L 20.59375 -45.125 L 16.828125 -45.125 L 16.828125 -46.234375 L 32.234375 -46.234375 L 32.234375 -1.109375 L 35.265625 -1.109375 L 35.265625 0 Z M 21.578125 0 "/></g></g></g><g fill="#ffffff" fill-opacity="1"><g transform="translate(145.327993, 160.301241)"><g><path d="M 20.53125 -12.140625 L 20.53125 -17.375 C 20.53125 -21.363281 20.3125 -24.269531 19.875 -26.09375 C 19.445312 -27.925781 18.453125 -28.84375 16.890625 -28.84375 C 15.984375 -28.84375 15.253906 -28.585938 14.703125 -28.078125 C 14.148438 -27.566406 13.75 -26.710938 13.5 -25.515625 C 13.125 -23.671875 12.9375 -20.859375 12.9375 -17.078125 L 12.9375 -12.265625 C 12.9375 -7.785156 13.070312 -5.09375 13.34375 -4.1875 C 13.613281 -3.28125 13.890625 -2.539062 14.171875 -1.96875 C 14.628906 -0.988281 15.515625 -0.5 16.828125 -0.5 C 18.429688 -0.5 19.476562 -1.421875 19.96875 -3.265625 C 20.34375 -4.578125 20.53125 -7.535156 20.53125 -12.140625 Z M 16.703125 0.609375 C 11.566406 0.609375 7.679688 -0.703125 5.046875 -3.328125 C 2.421875 -5.960938 1.109375 -9.734375 1.109375 -14.640625 C 1.109375 -19.546875 2.515625 -23.320312 5.328125 -25.96875 C 8.140625 -28.625 12.09375 -29.953125 17.1875 -29.953125 C 22.289062 -29.953125 26.09375 -28.726562 28.59375 -26.28125 C 31.101562 -23.84375 32.359375 -20.117188 32.359375 -15.109375 C 32.359375 -4.628906 27.140625 0.609375 16.703125 0.609375 Z M 16.703125 0.609375 "/></g></g></g><g fill="#ffffff" fill-opacity="1"><g transform="translate(178.798812, 160.301241)"><g><path d="M 0.609375 -29.34375 L 15.46875 -29.34375 L 15.46875 -23.671875 C 16.820312 -27.859375 19.8125 -29.953125 24.4375 -29.953125 C 29.0625 -29.953125 31.867188 -27.734375 32.859375 -23.296875 C 34.296875 -27.734375 37.316406 -29.953125 41.921875 -29.953125 C 47.960938 -29.953125 50.984375 -26.519531 50.984375 -19.65625 L 50.984375 -1.109375 L 54.421875 -1.109375 L 54.421875 0 L 37.359375 0 L 37.359375 -1.109375 L 39.515625 -1.109375 L 39.515625 -21.140625 C 39.515625 -24.265625 39.242188 -26.09375 38.703125 -26.625 C 38.460938 -26.875 38.132812 -27 37.71875 -27 C 36.53125 -27 35.484375 -26.195312 34.578125 -24.59375 C 33.671875 -22.988281 33.21875 -20.957031 33.21875 -18.5 L 33.21875 -1.109375 L 35.4375 -1.109375 L 35.4375 0 L 19.609375 0 L 19.609375 -1.109375 L 21.765625 -1.109375 L 21.765625 -21.140625 C 21.765625 -24.265625 21.492188 -26.09375 20.953125 -26.625 C 20.710938 -26.875 20.382812 -27 19.96875 -27 C 18.820312 -27 17.785156 -26.125 16.859375 -24.375 C 15.929688 -22.632812 15.46875 -20.550781 15.46875 -18.125 L 15.46875 -1.109375 L 17.6875 -1.109375 L 17.6875 0 L 0.609375 0 L 0.609375 -1.109375 L 4 -1.109375 L 4 -28.234375 L 0.609375 -28.234375 Z M 0.609375 -29.34375 "/></g></g></g><g fill="#ffffff" fill-opacity="1"><g transform="translate(233.535625, 160.301241)"><g><path d="M 5.109375 -27.859375 L 4.5625 -28.71875 C 8.382812 -31.226562 10.296875 -33.738281 10.296875 -36.25 C 10.296875 -37.5625 9.738281 -38.300781 8.625 -38.46875 L 6.046875 -36.0625 C 5.222656 -36.34375 4.472656 -36.863281 3.796875 -37.625 C 3.117188 -38.382812 2.78125 -39.359375 2.78125 -40.546875 C 2.78125 -41.742188 3.25 -42.765625 4.1875 -43.609375 C 5.132812 -44.453125 6.378906 -44.875 7.921875 -44.875 C 9.460938 -44.875 10.734375 -44.347656 11.734375 -43.296875 C 12.742188 -42.253906 13.25 -40.804688 13.25 -38.953125 C 13.25 -34.929688 10.535156 -31.234375 5.109375 -27.859375 Z M 5.109375 -27.859375 "/></g></g></g><g fill="#ffffff" fill-opacity="1"><g transform="translate(249.562158, 160.301241)"><g><path d="M 2.03125 0.609375 L 2.03125 -10.421875 L 2.78125 -10.421875 C 3.84375 -6.835938 5.273438 -4.328125 7.078125 -2.890625 C 8.890625 -1.453125 11.15625 -0.734375 13.875 -0.734375 C 18.0625 -0.734375 20.15625 -2.070312 20.15625 -4.75 C 20.15625 -5.894531 19.640625 -6.753906 18.609375 -7.328125 C 17.015625 -8.234375 14.960938 -8.9375 12.453125 -9.4375 C 9.660156 -10.175781 7.316406 -11.160156 5.421875 -12.390625 C 3.160156 -13.867188 2.03125 -16.207031 2.03125 -19.40625 C 2.03125 -22.613281 3.015625 -25.171875 4.984375 -27.078125 C 6.960938 -28.992188 9.597656 -29.953125 12.890625 -29.953125 C 14.898438 -29.953125 16.972656 -29.484375 19.109375 -28.546875 C 19.890625 -28.210938 20.484375 -28.046875 20.890625 -28.046875 C 21.304688 -28.046875 21.65625 -28.1875 21.9375 -28.46875 C 22.226562 -28.757812 22.578125 -29.296875 22.984375 -30.078125 L 23.671875 -30.078125 L 23.671875 -20.65625 L 22.9375 -20.65625 C 20.832031 -25.988281 17.582031 -28.65625 13.1875 -28.65625 C 11.257812 -28.65625 9.820312 -28.316406 8.875 -27.640625 C 7.925781 -26.960938 7.453125 -26.113281 7.453125 -25.09375 C 7.453125 -24.46875 7.597656 -23.976562 7.890625 -23.625 C 8.179688 -23.28125 8.40625 -23.023438 8.5625 -22.859375 C 8.726562 -22.703125 8.992188 -22.53125 9.359375 -22.34375 C 9.734375 -22.15625 10.039062 -22.007812 10.28125 -21.90625 C 10.53125 -21.8125 10.910156 -21.679688 11.421875 -21.515625 C 11.941406 -21.347656 12.328125 -21.242188 12.578125 -21.203125 C 15.367188 -20.503906 17.378906 -19.894531 18.609375 -19.375 C 19.847656 -18.863281 21.019531 -18.238281 22.125 -17.5 C 24.382812 -15.9375 25.515625 -13.421875 25.515625 -9.953125 C 25.515625 -6.484375 24.488281 -3.851562 22.4375 -2.0625 C 20.382812 -0.28125 17.570312 0.609375 14 0.609375 C 11.445312 0.609375 8.976562 0.015625 6.59375 -1.171875 C 6.101562 -1.503906 5.710938 -1.671875 5.421875 -1.671875 C 4.515625 -1.671875 3.632812 -0.910156 2.78125 0.609375 Z M 2.03125 0.609375 "/></g></g></g><g fill="#ffffff" fill-opacity="1"><g transform="translate(38.319985, 206.051238)"><g><path d="M 21.703125 -28.234375 L 21.703125 -29.34375 L 37.59375 -29.34375 L 37.59375 -28.234375 L 35.078125 -28.234375 L 40.625 -7.453125 L 46.109375 -28.234375 L 41.859375 -28.234375 L 41.859375 -29.34375 L 50.171875 -29.34375 L 50.171875 -28.234375 L 47.59375 -28.234375 L 40.1875 0 L 31.75 0 L 26.375 -18.921875 L 20.59375 0 L 12.328125 0 L 3.203125 -28.234375 L 0.4375 -28.234375 L 0.4375 -29.34375 L 19.109375 -29.34375 L 19.109375 -28.234375 L 15.40625 -28.234375 L 21.078125 -7.28125 L 25.515625 -21.703125 L 23.984375 -28.234375 Z M 21.703125 -28.234375 "/></g></g></g><g fill="#ffffff" fill-opacity="1"><g transform="translate(89.728203, 206.051238)"><g><path d="M 20.53125 -12.140625 L 20.53125 -17.375 C 20.53125 -21.363281 20.3125 -24.269531 19.875 -26.09375 C 19.445312 -27.925781 18.453125 -28.84375 16.890625 -28.84375 C 15.984375 -28.84375 15.253906 -28.585938 14.703125 -28.078125 C 14.148438 -27.566406 13.75 -26.710938 13.5 -25.515625 C 13.125 -23.671875 12.9375 -20.859375 12.9375 -17.078125 L 12.9375 -12.265625 C 12.9375 -7.785156 13.070312 -5.09375 13.34375 -4.1875 C 13.613281 -3.28125 13.890625 -2.539062 14.171875 -1.96875 C 14.628906 -0.988281 15.515625 -0.5 16.828125 -0.5 C 18.429688 -0.5 19.476562 -1.421875 19.96875 -3.265625 C 20.34375 -4.578125 20.53125 -7.535156 20.53125 -12.140625 Z M 16.703125 0.609375 C 11.566406 0.609375 7.679688 -0.703125 5.046875 -3.328125 C 2.421875 -5.960938 1.109375 -9.734375 1.109375 -14.640625 C 1.109375 -19.546875 2.515625 -23.320312 5.328125 -25.96875 C 8.140625 -28.625 12.09375 -29.953125 17.1875 -29.953125 C 22.289062 -29.953125 26.09375 -28.726562 28.59375 -26.28125 C 31.101562 -23.84375 32.359375 -20.117188 32.359375 -15.109375 C 32.359375 -4.628906 27.140625 0.609375 16.703125 0.609375 Z M 16.703125 0.609375 "/></g></g></g><g fill="#ffffff" fill-opacity="1"><g transform="translate(123.199023, 206.051238)"><g><path d="M 21.203125 -27.609375 C 19.679688 -27.609375 18.34375 -26.625 17.1875 -24.65625 C 16.039062 -22.6875 15.46875 -20.34375 15.46875 -17.625 L 15.46875 -1.109375 L 19.84375 -1.109375 L 19.84375 0 L 0.609375 0 L 0.609375 -1.109375 L 4 -1.109375 L 4 -28.234375 L 0.609375 -28.234375 L 0.609375 -29.34375 L 15.46875 -29.34375 L 15.46875 -23.421875 C 16 -25.515625 17.023438 -27.125 18.546875 -28.25 C 20.066406 -29.382812 21.789062 -29.953125 23.71875 -29.953125 C 25.65625 -29.953125 27.226562 -29.40625 28.4375 -28.3125 C 29.65625 -27.226562 30.265625 -25.691406 30.265625 -23.703125 C 30.265625 -21.710938 29.8125 -20.179688 28.90625 -19.109375 C 28 -18.035156 26.609375 -17.5 24.734375 -17.5 C 22.867188 -17.5 21.492188 -18.113281 20.609375 -19.34375 C 19.734375 -20.582031 19.625 -22.289062 20.28125 -24.46875 L 22.5 -24.46875 C 23.53125 -26.5625 23.097656 -27.609375 21.203125 -27.609375 Z M 21.203125 -27.609375 "/></g></g></g><g fill="#ffffff" fill-opacity="1"><g transform="translate(153.711098, 206.051238)"><g><path d="M 20.765625 0 L 20.765625 -1.109375 L 23.609375 -1.109375 L 16.640625 -15.40625 L 15.46875 -15.109375 L 15.46875 -1.109375 L 18.3125 -1.109375 L 18.3125 0 L 0.609375 0 L 0.609375 -1.109375 L 4 -1.109375 L 4 -45.125 L 0.375 -45.125 L 0.375 -46.234375 L 15.46875 -46.234375 L 15.46875 -16.328125 L 16.453125 -16.703125 L 30.328125 -28.234375 L 24.53125 -28.234375 L 24.53125 -29.34375 L 36.671875 -29.34375 L 36.671875 -28.234375 L 32.359375 -28.234375 L 25.03125 -22 L 35.6875 -1.109375 L 37.90625 -1.109375 L 37.90625 0 Z M 20.765625 0 "/></g></g></g><g fill="#ffffff" fill-opacity="1"><g transform="translate(191.92824, 206.051238)"><g><path d="M 2.03125 0.609375 L 2.03125 -10.421875 L 2.78125 -10.421875 C 3.84375 -6.835938 5.273438 -4.328125 7.078125 -2.890625 C 8.890625 -1.453125 11.15625 -0.734375 13.875 -0.734375 C 18.0625 -0.734375 20.15625 -2.070312 20.15625 -4.75 C 20.15625 -5.894531 19.640625 -6.753906 18.609375 -7.328125 C 17.015625 -8.234375 14.960938 -8.9375 12.453125 -9.4375 C 9.660156 -10.175781 7.316406 -11.160156 5.421875 -12.390625 C 3.160156 -13.867188 2.03125 -16.207031 2.03125 -19.40625 C 2.03125 -22.613281 3.015625 -25.171875 4.984375 -27.078125 C 6.960938 -28.992188 9.597656 -29.953125 12.890625 -29.953125 C 14.898438 -29.953125 16.972656 -29.484375 19.109375 -28.546875 C 19.890625 -28.210938 20.484375 -28.046875 20.890625 -28.046875 C 21.304688 -28.046875 21.65625 -28.1875 21.9375 -28.46875 C 22.226562 -28.757812 22.578125 -29.296875 22.984375 -30.078125 L 23.671875 -30.078125 L 23.671875 -20.65625 L 22.9375 -20.65625 C 20.832031 -25.988281 17.582031 -28.65625 13.1875 -28.65625 C 11.257812 -28.65625 9.820312 -28.316406 8.875 -27.640625 C 7.925781 -26.960938 7.453125 -26.113281 7.453125 -25.09375 C 7.453125 -24.46875 7.597656 -23.976562 7.890625 -23.625 C 8.179688 -23.28125 8.40625 -23.023438 8.5625 -22.859375 C 8.726562 -22.703125 8.992188 -22.53125 9.359375 -22.34375 C 9.734375 -22.15625 10.039062 -22.007812 10.28125 -21.90625 C 10.53125 -21.8125 10.910156 -21.679688 11.421875 -21.515625 C 11.941406 -21.347656 12.328125 -21.242188 12.578125 -21.203125 C 15.367188 -20.503906 17.378906 -19.894531 18.609375 -19.375 C 19.847656 -18.863281 21.019531 -18.238281 22.125 -17.5 C 24.382812 -15.9375 25.515625 -13.421875 25.515625 -9.953125 C 25.515625 -6.484375 24.488281 -3.851562 22.4375 -2.0625 C 20.382812 -0.28125 17.570312 0.609375 14 0.609375 C 11.445312 0.609375 8.976562 0.015625 6.59375 -1.171875 C 6.101562 -1.503906 5.710938 -1.671875 5.421875 -1.671875 C 4.515625 -1.671875 3.632812 -0.910156 2.78125 0.609375 Z M 2.03125 0.609375 "/></g></g></g><g fill="#ffffff" fill-opacity="1"><g transform="translate(218.680244, 206.051238)"><g><path d="M 0.609375 -46.234375 L 15.46875 -46.234375 L 15.46875 -23.671875 C 16.125 -25.554688 17.128906 -27.070312 18.484375 -28.21875 C 19.847656 -29.375 21.90625 -29.953125 24.65625 -29.953125 C 31.019531 -29.953125 34.203125 -26.519531 34.203125 -19.65625 L 34.203125 -1.109375 L 37.65625 -1.109375 L 37.65625 0 L 20.21875 0 L 20.21875 -1.109375 L 22.75 -1.109375 L 22.75 -21.140625 C 22.75 -23.609375 22.582031 -25.203125 22.25 -25.921875 C 21.925781 -26.640625 21.332031 -27 20.46875 -27 C 19.15625 -27 17.992188 -26.132812 16.984375 -24.40625 C 15.972656 -22.6875 15.46875 -20.59375 15.46875 -18.125 L 15.46875 -1.109375 L 18.125 -1.109375 L 18.125 0 L 0.609375 0 L 0.609375 -1.109375 L 4 -1.109375 L 4 -45.125 L 0.609375 -45.125 Z M 0.609375 -46.234375 "/></g></g></g><g fill="#ffffff" fill-opacity="1"><g transform="translate(256.650811, 206.051238)"><g><path d="M 20.53125 -12.140625 L 20.53125 -17.375 C 20.53125 -21.363281 20.3125 -24.269531 19.875 -26.09375 C 19.445312 -27.925781 18.453125 -28.84375 16.890625 -28.84375 C 15.984375 -28.84375 15.253906 -28.585938 14.703125 -28.078125 C 14.148438 -27.566406 13.75 -26.710938 13.5 -25.515625 C 13.125 -23.671875 12.9375 -20.859375 12.9375 -17.078125 L 12.9375 -12.265625 C 12.9375 -7.785156 13.070312 -5.09375 13.34375 -4.1875 C 13.613281 -3.28125 13.890625 -2.539062 14.171875 -1.96875 C 14.628906 -0.988281 15.515625 -0.5 16.828125 -0.5 C 18.429688 -0.5 19.476562 -1.421875 19.96875 -3.265625 C 20.34375 -4.578125 20.53125 -7.535156 20.53125 -12.140625 Z M 16.703125 0.609375 C 11.566406 0.609375 7.679688 -0.703125 5.046875 -3.328125 C 2.421875 -5.960938 1.109375 -9.734375 1.109375 -14.640625 C 1.109375 -19.546875 2.515625 -23.320312 5.328125 -25.96875 C 8.140625 -28.625 12.09375 -29.953125 17.1875 -29.953125 C 22.289062 -29.953125 26.09375 -28.726562 28.59375 -26.28125 C 31.101562 -23.84375 32.359375 -20.117188 32.359375 -15.109375 C 32.359375 -4.628906 27.140625 0.609375 16.703125 0.609375 Z M 16.703125 0.609375 "/></g></g></g><g fill="#ffffff" fill-opacity="1"><g transform="translate(290.121619, 206.051238)"><g><path d="M 23.109375 -16.578125 C 23.109375 -20.816406 22.898438 -23.664062 22.484375 -25.125 C 22.078125 -26.582031 21.28125 -27.3125 20.09375 -27.3125 C 18.90625 -27.3125 17.835938 -26.539062 16.890625 -25 C 15.941406 -23.457031 15.46875 -21.390625 15.46875 -18.796875 L 15.46875 -7.515625 C 15.46875 -5.753906 15.816406 -4.253906 16.515625 -3.015625 C 17.210938 -1.785156 18.238281 -1.171875 19.59375 -1.171875 C 20.957031 -1.171875 21.882812 -2.070312 22.375 -3.875 C 22.863281 -5.6875 23.109375 -8.851562 23.109375 -13.375 Z M 15.34375 -29.34375 L 15.34375 -24.46875 C 16.945312 -28.125 19.785156 -29.953125 23.859375 -29.953125 C 27.390625 -29.953125 30.128906 -28.675781 32.078125 -26.125 C 34.035156 -23.582031 35.015625 -19.722656 35.015625 -14.546875 C 35.015625 -9.367188 33.953125 -5.546875 31.828125 -3.078125 C 29.710938 -0.617188 26.539062 0.609375 22.3125 0.609375 C 20.34375 0.609375 18.863281 0.363281 17.875 -0.125 C 16.882812 -0.613281 16.082031 -1.375 15.46875 -2.40625 L 15.46875 13.5625 L 23.421875 13.5625 L 23.421875 14.671875 L 0.609375 14.671875 L 0.609375 13.5625 L 4 13.5625 L 4 -28.234375 L 0.734375 -28.234375 L 0.734375 -29.34375 Z M 15.34375 -29.34375 "/></g></g></g></svg>