<svg width="1197" height="1347" viewBox="0 0 1197 1347" fill="none" xmlns="http://www.w3.org/2000/svg">
<rect width="1197" height="1347"/>
<path d="M295.831 1054.62C291.384 1054.62 287.228 1055.78 283.361 1058.11C279.591 1060.42 276.256 1063.52 273.356 1067.38C270.553 1071.25 268.329 1075.7 266.686 1080.72C265.139 1085.75 264.366 1090.92 264.366 1096.24C264.366 1103.49 265.864 1109.39 268.861 1113.93C271.954 1118.38 276.933 1120.6 283.796 1120.6C288.243 1120.6 292.351 1119.44 296.121 1117.12C299.988 1114.8 303.323 1111.71 306.126 1107.84C309.026 1103.97 311.249 1099.57 312.796 1094.64C314.439 1089.62 315.261 1084.4 315.261 1078.98C315.261 1071.73 313.714 1065.89 310.621 1061.44C307.624 1056.9 302.694 1054.62 295.831 1054.62ZM281.476 1140.03C275.579 1140.03 270.166 1139.06 265.236 1137.13C260.306 1135.2 256.053 1132.44 252.476 1128.86C248.899 1125.19 246.096 1120.74 244.066 1115.52C242.133 1110.3 241.166 1104.41 241.166 1097.83C241.166 1090.29 242.471 1082.8 245.081 1075.36C247.691 1067.92 251.413 1061.25 256.246 1055.35C261.176 1049.36 267.169 1044.52 274.226 1040.85C281.283 1037.08 289.258 1035.19 298.151 1035.19C304.048 1035.19 309.461 1036.16 314.391 1038.09C319.321 1040.03 323.574 1042.83 327.151 1046.5C330.728 1050.08 333.483 1054.48 335.416 1059.7C337.446 1064.92 338.461 1070.82 338.461 1077.39C338.461 1084.93 337.156 1092.47 334.546 1100.01C332.033 1107.45 328.311 1114.17 323.381 1120.16C318.548 1126.06 312.603 1130.85 305.546 1134.52C298.489 1138.19 290.466 1140.03 281.476 1140.03ZM368.597 1121.18C370.241 1121.57 372.271 1121.76 374.687 1121.76C378.457 1121.76 381.889 1121.08 384.982 1119.73C388.076 1118.28 390.686 1116.3 392.812 1113.78C395.036 1111.27 396.727 1108.27 397.887 1104.79C399.144 1101.22 399.772 1097.3 399.772 1093.05C399.772 1088.89 398.854 1085.36 397.017 1082.46C395.181 1079.56 391.991 1078.11 387.447 1078.11C384.354 1078.11 381.454 1078.4 378.747 1078.98L368.597 1121.18ZM421.232 1091.45C421.232 1098.51 420.072 1104.99 417.752 1110.88C415.432 1116.68 412.194 1121.71 408.037 1125.96C403.977 1130.22 399.047 1133.55 393.247 1135.97C387.544 1138.29 381.309 1139.45 374.542 1139.45C371.256 1139.45 367.969 1139.16 364.682 1138.58L358.157 1164.83H336.697L360.767 1064.48C364.634 1063.32 369.032 1062.31 373.962 1061.44C378.989 1060.47 384.402 1059.99 390.202 1059.99C395.616 1059.99 400.256 1060.81 404.122 1062.45C408.086 1064.1 411.324 1066.37 413.837 1069.27C416.351 1072.07 418.187 1075.41 419.347 1079.27C420.604 1083.04 421.232 1087.1 421.232 1091.45ZM431.4 1108.13C431.4 1101.94 432.464 1095.95 434.59 1090.15C436.814 1084.35 439.907 1079.23 443.87 1074.78C447.834 1070.24 452.619 1066.61 458.225 1063.9C463.929 1061.1 470.212 1059.7 477.075 1059.7C480.459 1059.7 483.6 1060.18 486.5 1061.15C489.4 1062.12 491.914 1063.52 494.04 1065.35C496.264 1067.19 497.955 1069.46 499.115 1072.17C500.372 1074.78 501 1077.78 501 1081.16C501 1086.57 499.792 1091.16 497.375 1094.93C494.959 1098.7 491.575 1101.8 487.225 1104.21C482.972 1106.53 477.897 1108.23 472 1109.29C466.104 1110.35 459.675 1110.88 452.715 1110.88C453.392 1114.94 454.842 1117.84 457.065 1119.58C459.385 1121.23 463.01 1122.05 467.94 1122.05C471.034 1122.05 474.175 1121.81 477.365 1121.32C480.555 1120.74 483.552 1119.92 486.355 1118.86L487.95 1135.82C485.244 1136.89 481.764 1137.85 477.51 1138.73C473.354 1139.6 468.81 1140.03 463.88 1140.03C457.887 1140.03 452.812 1139.21 448.655 1137.56C444.595 1135.82 441.26 1133.5 438.65 1130.6C436.137 1127.7 434.3 1124.32 433.14 1120.45C431.98 1116.59 431.4 1112.48 431.4 1108.13ZM473.595 1076.81C468.665 1076.81 464.315 1078.6 460.545 1082.17C456.872 1085.65 454.455 1090.29 453.295 1096.09C459.289 1095.9 464.122 1095.42 467.795 1094.64C471.469 1093.77 474.32 1092.76 476.35 1091.6C478.38 1090.44 479.734 1089.18 480.41 1087.83C481.087 1086.48 481.425 1085.12 481.425 1083.77C481.425 1079.13 478.815 1076.81 473.595 1076.81ZM521.485 1065.21C523.128 1064.73 524.917 1064.19 526.85 1063.61C528.88 1062.94 531.103 1062.36 533.52 1061.87C536.033 1061.29 538.788 1060.86 541.785 1060.57C544.878 1060.18 548.358 1059.99 552.225 1059.99C563.632 1059.99 571.462 1063.28 575.715 1069.85C579.968 1076.42 580.693 1085.41 577.89 1096.82L568.03 1138H546.425L555.995 1097.69C556.575 1095.18 557.01 1092.76 557.3 1090.44C557.687 1088.02 557.687 1085.94 557.3 1084.2C556.913 1082.37 555.995 1080.92 554.545 1079.85C553.192 1078.69 551.065 1078.11 548.165 1078.11C545.362 1078.11 542.51 1078.4 539.61 1078.98L525.545 1138H503.94L521.485 1065.21ZM648.561 1054.62C644.114 1054.62 639.957 1055.78 636.091 1058.11C632.321 1060.42 628.986 1063.52 626.086 1067.38C623.282 1071.25 621.059 1075.7 619.416 1080.72C617.869 1085.75 617.096 1090.92 617.096 1096.24C617.096 1103.49 618.594 1109.39 621.591 1113.93C624.684 1118.38 629.662 1120.6 636.526 1120.6C640.972 1120.6 645.081 1119.44 648.851 1117.12C652.717 1114.8 656.052 1111.71 658.856 1107.84C661.756 1103.97 663.979 1099.57 665.526 1094.64C667.169 1089.62 667.991 1084.4 667.991 1078.98C667.991 1071.73 666.444 1065.89 663.351 1061.44C660.354 1056.9 655.424 1054.62 648.561 1054.62ZM634.206 1140.03C628.309 1140.03 622.896 1139.06 617.966 1137.13C613.036 1135.2 608.782 1132.44 605.206 1128.86C601.629 1125.19 598.826 1120.74 596.796 1115.52C594.862 1110.3 593.896 1104.41 593.896 1097.83C593.896 1090.29 595.201 1082.8 597.811 1075.36C600.421 1067.92 604.142 1061.25 608.976 1055.35C613.906 1049.36 619.899 1044.52 626.956 1040.85C634.012 1037.08 641.987 1035.19 650.881 1035.19C656.777 1035.19 662.191 1036.16 667.121 1038.09C672.051 1040.03 676.304 1042.83 679.881 1046.5C683.457 1050.08 686.212 1054.48 688.146 1059.7C690.176 1064.92 691.191 1070.82 691.191 1077.39C691.191 1084.93 689.886 1092.47 687.276 1100.01C684.762 1107.45 681.041 1114.17 676.111 1120.16C671.277 1126.06 665.332 1130.85 658.276 1134.52C651.219 1138.19 643.196 1140.03 634.206 1140.03ZM713.497 1065.21C715.14 1064.73 716.928 1064.19 718.862 1063.61C720.892 1062.94 723.115 1062.36 725.532 1061.87C728.045 1061.29 730.8 1060.86 733.797 1060.57C736.89 1060.18 740.37 1059.99 744.237 1059.99C755.643 1059.99 763.473 1063.28 767.727 1069.85C771.98 1076.42 772.705 1085.41 769.902 1096.82L760.042 1138H738.437L748.007 1097.69C748.587 1095.18 749.022 1092.76 749.312 1090.44C749.698 1088.02 749.698 1085.94 749.312 1084.2C748.925 1082.37 748.007 1080.92 746.557 1079.85C745.203 1078.69 743.077 1078.11 740.177 1078.11C737.373 1078.11 734.522 1078.4 731.622 1078.98L717.557 1138H695.952L713.497 1065.21ZM799.682 1138H778.222L796.347 1061.73H817.952L799.682 1138ZM810.122 1052.45C807.126 1052.45 804.419 1051.58 802.002 1049.84C799.586 1048 798.377 1045.25 798.377 1041.57C798.377 1039.54 798.764 1037.66 799.537 1035.92C800.407 1034.08 801.519 1032.54 802.872 1031.28C804.226 1029.93 805.772 1028.86 807.512 1028.09C809.349 1027.32 811.282 1026.93 813.312 1026.93C816.309 1026.93 819.016 1027.85 821.432 1029.68C823.849 1031.42 825.057 1034.13 825.057 1037.8C825.057 1039.83 824.622 1041.77 823.752 1043.6C822.979 1045.34 821.916 1046.89 820.562 1048.24C819.209 1049.5 817.614 1050.52 815.777 1051.29C814.037 1052.06 812.152 1052.45 810.122 1052.45ZM853.797 1140.03C848.673 1140.03 844.227 1139.26 840.457 1137.71C836.687 1136.16 833.545 1133.99 831.032 1131.18C828.615 1128.38 826.778 1125.09 825.522 1121.32C824.265 1117.46 823.637 1113.2 823.637 1108.56C823.637 1102.76 824.555 1096.96 826.392 1091.16C828.325 1085.36 831.128 1080.14 834.802 1075.5C838.475 1070.86 842.97 1067.09 848.287 1064.19C853.603 1061.2 859.693 1059.7 866.557 1059.7C871.583 1059.7 875.982 1060.47 879.752 1062.02C883.618 1063.57 886.76 1065.74 889.177 1068.54C891.69 1071.35 893.575 1074.68 894.832 1078.55C896.088 1082.32 896.717 1086.52 896.717 1091.16C896.717 1096.96 895.798 1102.76 893.962 1108.56C892.125 1114.36 889.418 1119.58 885.842 1124.22C882.265 1128.86 877.77 1132.68 872.357 1135.68C867.04 1138.58 860.853 1140.03 853.797 1140.03ZM864.527 1077.97C861.337 1077.97 858.533 1078.89 856.117 1080.72C853.7 1082.56 851.67 1084.88 850.027 1087.68C848.383 1090.49 847.127 1093.58 846.257 1096.96C845.483 1100.25 845.097 1103.39 845.097 1106.39C845.097 1111.32 845.87 1115.14 847.417 1117.84C848.963 1120.45 851.767 1121.76 855.827 1121.76C859.017 1121.76 861.82 1120.84 864.237 1119C866.653 1117.17 868.683 1114.85 870.327 1112.04C871.97 1109.24 873.178 1106.2 873.952 1102.91C874.822 1099.53 875.257 1096.34 875.257 1093.34C875.257 1088.41 874.483 1084.64 872.937 1082.03C871.39 1079.32 868.587 1077.97 864.527 1077.97ZM920.093 1065.21C921.737 1064.73 923.525 1064.19 925.458 1063.61C927.488 1062.94 929.712 1062.36 932.128 1061.87C934.642 1061.29 937.397 1060.86 940.393 1060.57C943.487 1060.18 946.967 1059.99 950.833 1059.99C962.24 1059.99 970.07 1063.28 974.323 1069.85C978.577 1076.42 979.302 1085.41 976.498 1096.82L966.638 1138H945.033L954.603 1097.69C955.183 1095.18 955.618 1092.76 955.908 1090.44C956.295 1088.02 956.295 1085.94 955.908 1084.2C955.522 1082.37 954.603 1080.92 953.153 1079.85C951.8 1078.69 949.673 1078.11 946.773 1078.11C943.97 1078.11 941.118 1078.4 938.218 1078.98L924.153 1138H902.548L920.093 1065.21Z" fill="white"/>
<g clip-path="url(#clip0_816_5049)">
<path d="M833.07 289.258C913.471 329.037 929.032 429.35 861.167 546.958C773.418 699.157 578.468 822.819 425.879 822.819C273.291 822.819 221.419 699.157 309.601 546.526C369.685 442.754 479.48 351.953 591.435 304.824C591.435 304.824 644.604 286.231 696.907 250.343C749.211 214.455 753.534 189.81 753.534 189.81C753.534 189.81 759.153 229.156 778.605 248.614C798.057 268.071 833.07 289.258 833.07 289.258Z" fill="#C6B2E9"/>
<path d="M671.501 698.035C802.234 595.438 860.905 451.95 802.546 377.547C744.188 303.144 590.9 326 460.167 428.598C329.435 531.195 270.764 674.683 329.122 749.086C387.48 823.489 540.768 800.633 671.501 698.035Z" fill="#D2BFF4"/>
<path d="M587.551 702.16C673.955 634.352 712.698 539.476 674.088 490.25C635.477 441.023 534.133 456.087 447.729 523.896C361.325 591.705 322.581 686.581 361.192 735.807C399.803 785.033 501.147 769.969 587.551 702.16Z" fill="#DACAF6"/>
<path d="M508.017 709.017C554.6 672.46 575.518 621.348 554.739 594.856C533.96 568.363 479.352 576.523 432.77 613.081C386.187 649.639 365.269 700.751 386.048 727.243C406.827 753.735 461.434 745.575 508.017 709.017Z" fill="#ECE4FA"/>
<path d="M695.177 342.873C745.32 342.873 783.359 360.601 802.378 393.462C826.153 434.538 819.237 495.072 782.494 559.497C712.468 683.591 556.853 784.337 436.252 784.337C386.11 784.337 348.071 766.609 329.051 733.748C305.277 692.671 312.193 632.138 348.935 567.713C418.962 443.619 574.576 342.873 695.177 342.873ZM695.177 334.226C571.118 334.226 412.91 436.7 341.155 563.389C269.399 690.077 312.193 792.552 435.82 792.552C559.447 792.552 718.087 690.077 789.843 563.389C861.598 436.7 819.237 334.226 695.177 334.226Z" fill="white"/>
<path d="M603.106 469.994C635.094 469.994 659.3 481.236 671.404 501.99C686.533 528.366 681.778 567.28 658.436 608.789C612.616 690.077 511.034 756.232 431.931 756.232C399.943 756.232 375.736 744.99 363.633 724.235C348.504 697.86 353.259 658.945 376.601 617.437C422.421 536.148 524.002 469.994 603.106 469.994ZM603.106 461.346C520.977 461.346 416.369 529.23 369.252 613.113C322.136 696.995 350.233 764.879 431.931 764.879C513.628 764.879 618.668 696.995 665.784 613.113C712.901 529.23 685.236 461.346 603.106 461.346Z" fill="white"/>
<path d="M516.655 588.034C532.648 588.034 544.32 593.223 549.939 603.168C557.287 616.139 554.694 635.597 543.023 656.783C518.816 699.589 465.648 734.18 424.151 734.18C408.157 734.18 396.486 728.991 390.866 719.047C383.518 706.075 386.112 686.618 397.783 665.431C421.989 622.625 475.158 588.034 516.655 588.034ZM516.655 579.387C472.564 579.387 415.938 616.139 390.434 661.107C364.931 706.075 380.06 742.828 424.151 742.828C468.241 742.828 524.868 706.075 550.371 661.107C575.875 616.139 560.745 579.387 516.655 579.387Z" fill="white"/>
<path d="M906.554 357.574C894.883 322.984 871.541 296.176 837.825 279.313C832.637 276.719 826.154 278.88 823.128 284.069C820.102 289.258 822.695 295.743 827.883 298.77C844.308 306.985 858.141 317.795 868.515 331.631C868.947 332.064 869.38 332.496 869.38 332.928C869.38 332.928 869.38 332.928 869.38 333.361C872.406 337.685 875.431 342.441 878.457 347.629C881.915 354.115 884.509 361.033 886.67 367.951C900.935 415.514 888.399 476.912 851.225 541.337C765.205 690.509 574.145 812.009 425.447 812.009C363.201 812.009 316.084 789.958 293.174 750.178C264.645 701.319 274.155 629.111 318.246 552.147C374.872 453.563 481.208 363.195 594.893 315.201C599.648 313.471 651.087 294.879 702.527 259.423C757.424 221.806 763.475 194.998 764.34 191.971C765.205 185.918 761.746 180.297 755.695 179.432C749.643 178.568 744.024 182.027 743.159 188.08C743.159 188.08 737.54 209.699 690.855 241.695C640.281 276.286 588.842 294.879 587.977 294.879C587.977 294.879 587.545 294.879 587.545 295.311C469.105 344.603 359.31 438.862 300.09 541.337C251.677 624.787 242.6 704.778 275.019 760.555C280.639 770.5 287.555 779.148 295.768 787.363L298.361 789.958C299.658 791.255 300.955 792.119 301.82 793.417L305.278 796.443C381.356 858.274 482.073 892 589.274 892C592.3 892 595.326 892 598.351 892C700.365 890.27 792.005 856.977 843.012 803.361C966.206 673.214 957.993 467.832 906.554 357.574Z" fill="black"/>
<path d="M906.554 357.574C894.883 322.984 871.541 296.176 837.825 279.313C832.637 276.719 826.154 278.88 823.128 284.069C820.102 289.258 822.695 295.743 827.883 298.77C844.308 306.985 858.141 317.795 868.515 331.631C868.947 332.064 869.38 332.496 869.38 332.928C869.38 332.928 869.38 332.928 869.38 333.361C872.406 337.685 875.431 342.441 878.457 347.629C881.915 354.115 884.509 361.033 886.67 367.951C900.935 415.514 888.399 476.912 851.225 541.337C765.205 690.509 574.145 812.009 425.447 812.009C363.201 812.009 316.084 789.958 293.174 750.178C264.645 701.319 274.155 629.111 318.246 552.147C374.872 453.563 481.208 363.195 594.893 315.201C599.648 313.471 651.087 294.879 702.527 259.423C757.424 221.806 763.475 194.998 764.34 191.971C765.205 185.918 761.746 180.297 755.695 179.432C749.643 178.568 744.024 182.027 743.159 188.08C743.159 188.08 737.54 209.699 690.855 241.695C640.281 276.286 588.842 294.879 587.977 294.879C587.977 294.879 587.545 294.879 587.545 295.311C469.105 344.603 359.31 438.862 300.09 541.337C251.677 624.787 242.6 704.778 275.019 760.555C280.639 770.5 287.555 779.148 295.768 787.363L298.361 789.958C299.658 791.255 300.955 792.119 301.82 793.417L305.278 796.443C381.356 858.274 482.073 892 589.274 892C592.3 892 595.326 892 598.351 892C700.365 890.27 792.005 856.977 843.012 803.361C966.206 673.214 957.993 467.832 906.554 357.574Z" fill="black"/>
</g>
<defs>
<clipPath id="clip0_816_5049">
<rect width="686" height="713" fill="white" transform="translate(256 179)"/>
</clipPath>
</defs>
</svg>
