<svg width="85" height="83" viewBox="0 0 85 83" fill="none" xmlns="http://www.w3.org/2000/svg">
<g filter="url(#filter0_d_2686_4598)">
<path d="M55.0872 56.0651C71.5224 43.701 79.1759 26.1389 72.1816 16.839C65.1873 7.53912 46.1939 10.0232 29.7587 22.3873C13.3234 34.7513 5.66998 52.3135 12.6643 61.6133C19.6585 70.9132 38.6519 68.4292 55.0872 56.0651Z" fill="#908FB2"/>
<path d="M70.7728 15.2466L14.6709 63.7225C31.3496 77.2824 57.6844 75.1051 67.7794 64.4468C82.3338 49.1178 78.3572 22.8803 70.7728 15.2466Z" fill="black" stroke="black" stroke-width="2" stroke-miterlimit="10"/>
<path d="M67.5813 13.0942C75.7407 17.1372 77.3164 27.3126 70.4343 39.2351C61.5068 54.709 41.725 67.2504 26.2533 67.2504C10.7816 67.2504 5.48389 54.709 14.4026 39.2351C20.5035 28.6734 31.6607 19.4813 43.0505 14.7053C46.8204 13.2862 50.4082 11.4236 53.738 9.15662C59.0445 5.49119 59.4922 3.01099 59.4922 3.01099" fill="#C6B2E9"/>
<path d="M67.5813 13.0942C75.7407 17.1372 77.3164 27.3126 70.4343 39.2351C61.5068 54.709 41.725 67.2504 26.2533 67.2504C10.7816 67.2504 5.48389 54.709 14.4026 39.2351C20.5035 28.6734 31.6607 19.4813 43.0505 14.7053C46.8204 13.2862 50.4082 11.4236 53.738 9.15662C59.0445 5.49119 59.4922 3.01099 59.4922 3.01099" stroke="black" stroke-width="2" stroke-linecap="round" stroke-linejoin="round"/>
<path d="M27.2817 63.7924C22.0367 63.7924 18.0382 61.896 16.0323 58.4545C13.5261 54.1569 14.2547 47.8533 18.0382 41.1589C25.2188 28.4287 41.1689 18.0996 53.5902 18.0996C58.8571 18.0996 62.8337 19.9916 64.8395 23.4331C67.3457 27.7307 66.5952 34.0344 62.8337 40.7287C55.6574 53.4458 39.7073 63.7924 27.2817 63.7924Z" fill="#D2BFF4"/>
<path d="M53.5944 18.5369C58.677 18.5369 62.5395 20.3542 64.4663 23.6553C66.8935 27.8124 66.1605 33.958 62.4561 40.5119C55.3457 53.1061 39.5624 63.3386 27.2816 63.3386C22.1989 63.3386 18.3365 61.5212 16.4097 58.2201C13.9825 54.0587 14.7155 47.9174 18.4199 41.3635C25.5347 28.7694 41.3136 18.5369 53.5944 18.5369ZM53.5944 17.6589C41.0108 17.6589 24.9202 28.0846 17.6518 40.9245C10.3834 53.7645 14.7023 64.2121 27.2816 64.2121C39.8608 64.2121 55.9558 53.7865 63.2242 40.9245C70.4926 28.0626 66.1781 17.6589 53.5944 17.6589Z" fill="white"/>
<path d="M26.8332 60.918C23.4185 60.918 20.8201 59.6933 19.5209 57.4633C17.8882 54.6714 18.3754 50.5539 20.8377 46.1773C25.5648 37.8104 36.0548 31.002 44.2186 31.002C47.6333 31.002 50.2317 32.2311 51.5309 34.4567C53.1636 37.2529 52.6764 41.3661 50.2141 45.7427C45.487 54.1139 34.997 60.918 26.8332 60.918Z" fill="#DACAF6"/>
<path d="M44.2267 31.4451C47.479 31.4451 49.9326 32.5952 51.1615 34.6847C52.7109 37.3405 52.2237 41.2957 49.8448 45.5318C45.1967 53.7757 34.8559 60.4832 26.8326 60.4832C23.5802 60.4832 21.1267 59.3331 19.8977 57.248C18.3484 54.5922 18.8356 50.637 21.2145 46.3965C25.8713 38.1526 36.1902 31.4451 44.2135 31.4451M44.2135 30.5671C35.8742 30.5671 25.2569 37.4634 20.4508 45.9663C15.6447 54.4693 18.4976 61.3612 26.8194 61.3612C35.1412 61.3612 45.7761 54.4693 50.5822 45.9663C55.3883 37.4634 52.5353 30.5671 44.2135 30.5671Z" fill="white"/>
<path d="M26.0527 58.7197C24.297 58.7197 22.9495 58.0919 22.2868 56.9638C21.4441 55.5195 21.703 53.3773 23.0022 51.0771C25.5172 46.6259 31.0958 43 35.4322 43C37.1879 43 38.5397 43.6233 39.2025 44.7559C40.0452 46.2001 39.7819 48.3467 38.4871 50.6425C35.9809 55.0893 30.3935 58.7197 26.0527 58.7197Z" fill="#ECE4FA"/>
<path d="M35.4313 43.4314C37.0597 43.4314 38.2316 43.967 38.8241 44.9766C39.5834 46.2935 39.3201 48.2645 38.1043 50.4243C35.6551 54.7569 30.2477 58.2819 26.0517 58.2819C24.4233 58.2819 23.2514 57.7464 22.6633 56.7367C21.8996 55.4198 22.1629 53.4444 23.3831 51.289C25.8322 46.9564 31.2353 43.4314 35.4313 43.4314ZM35.4313 42.5535C30.9456 42.5535 25.209 46.2716 22.6194 50.8545C20.0298 55.4374 21.566 59.1598 26.0517 59.1598C30.5374 59.1598 36.2784 55.4417 38.868 50.8545C41.4576 46.2672 39.9214 42.5535 35.4313 42.5535Z" fill="white"/>
</g>
<defs>
<filter id="filter0_d_2686_4598" x="5.07129" y="2.01074" width="77.5107" height="80.1638" filterUnits="userSpaceOnUse" color-interpolation-filters="sRGB">
<feFlood flood-opacity="0" result="BackgroundImageFix"/>
<feColorMatrix in="SourceAlpha" type="matrix" values="0 0 0 0 0 0 0 0 0 0 0 0 0 0 0 0 0 0 127 0" result="hardAlpha"/>
<feOffset dy="4"/>
<feGaussianBlur stdDeviation="2"/>
<feComposite in2="hardAlpha" operator="out"/>
<feColorMatrix type="matrix" values="0 0 0 0 0 0 0 0 0 0 0 0 0 0 0 0 0 0 0.25 0"/>
<feBlend mode="normal" in2="BackgroundImageFix" result="effect1_dropShadow_2686_4598"/>
<feBlend mode="normal" in="SourceGraphic" in2="effect1_dropShadow_2686_4598" result="shape"/>
</filter>
</defs>
</svg>
